<svg width="184" height="200" viewBox="0 0 184 200" fill="none" xmlns="http://www.w3.org/2000/svg">
<g filter="url(#filter0_d_914_1558)">
<g filter="url(#filter1_d_914_1558)">
<path d="M82 24.6188C86.9504 21.7607 93.0496 21.7607 98 24.6188L149.55 54.3812C154.5 57.2393 157.55 62.5214 157.55 68.2376V127.762C157.55 133.479 154.5 138.761 149.55 141.619L98 171.381C93.0496 174.239 86.9504 174.239 82 171.381L30.45 141.619C25.4996 138.761 22.45 133.479 22.45 127.762V68.2376C22.45 62.5214 25.4996 57.2393 30.45 54.3812L82 24.6188Z" fill="#C0C0C0"/>
</g>
<g filter="url(#filter2_i_914_1558)">
<path d="M82.0914 37.4968C86.9952 34.7086 93.0048 34.7086 97.9086 37.4968L139.066 60.8992C144.068 63.7433 147.158 69.0541 147.158 74.808V121.192C147.158 126.946 144.068 132.257 139.066 135.101L97.9086 158.503C93.0048 161.291 86.9952 161.291 82.0914 158.503L40.9337 135.101C35.9319 132.257 32.8423 126.946 32.8423 121.192V74.808C32.8423 69.0541 35.9319 63.7433 40.9337 60.8992L82.0914 37.4968Z" fill="#C6C6C6"/>
</g>
<path d="M82.0914 37.4968C86.9952 34.7086 93.0048 34.7086 97.9086 37.4968L139.066 60.8992C144.068 63.7433 147.158 69.0541 147.158 74.808V121.192C147.158 126.946 144.068 132.257 139.066 135.101L97.9086 158.503C93.0048 161.291 86.9952 161.291 82.0914 158.503L40.9337 135.101C35.9319 132.257 32.8423 126.946 32.8423 121.192V74.808C32.8423 69.0541 35.9319 63.7433 40.9337 60.8992L82.0914 37.4968Z" stroke="#CECECE"/>
<g filter="url(#filter3_d_914_1558)">
<path d="M82.5 49.6188C87.4504 46.7607 93.5496 46.7607 98.5 49.6188L128.832 67.1312C133.783 69.9893 136.832 75.2714 136.832 80.9876V116.012C136.832 121.729 133.783 127.011 128.832 129.869L98.5 147.381C93.5496 150.239 87.4504 150.239 82.5 147.381L52.1676 129.869C47.2172 127.011 44.1676 121.729 44.1676 116.012V80.9876C44.1676 75.2714 47.2172 69.9893 52.1676 67.1312L82.5 49.6188Z" fill="#CACACA"/>
<path d="M82.5 49.6188C87.4504 46.7607 93.5496 46.7607 98.5 49.6188L128.832 67.1312C133.783 69.9893 136.832 75.2714 136.832 80.9876V116.012C136.832 121.729 133.783 127.011 128.832 129.869L98.5 147.381C93.5496 150.239 87.4504 150.239 82.5 147.381L52.1676 129.869C47.2172 127.011 44.1676 121.729 44.1676 116.012V80.9876C44.1676 75.2714 47.2172 69.9893 52.1676 67.1312L82.5 49.6188Z" stroke="#C5C5C5"/>
</g>
<g filter="url(#filter4_i_914_1558)">
<path d="M25.8 121.028L25.8 120.056L30 120.056L30 121.028L25.8 121.028ZM25.8 115.208L30 115.208L30 116.006L27.45 118.1L30 118.1L30 119.06L25.8 119.06L25.8 118.256L28.35 116.168L25.8 116.168L25.8 115.208ZM26.592 111.645L26.592 112.989L25.8 112.989L25.8 109.329L26.592 109.329L26.592 110.673L30 110.673L30 111.645L26.592 111.645ZM25.8 104.954L30 104.954L30 105.926L28.278 105.926L28.278 107.834L30 107.834L30 108.806L25.8 108.806L25.8 107.834L27.456 107.834L27.456 105.926L25.8 105.926L25.8 104.954ZM29.22 100.708L30 100.708L30 103.96L25.8 103.96L25.8 100.786L26.58 100.786L26.58 102.994L27.492 102.994L27.492 101.044L28.248 101.044L28.248 102.994L29.22 102.994L29.22 100.708ZM30 94.4134L27.48 94.4194L29.556 95.6554L29.556 96.0934L27.534 97.3234L30 97.3234L30 98.2354L25.8 98.2354L25.8 97.4314L28.41 95.8594L25.8 94.3114L25.8 93.5134L30 93.5014L30 94.4134ZM25.8 92.5049L25.8 91.5329L30 91.5329L30 92.5049L25.8 92.5049ZM25.8 90.5362L25.8 88.6282C25.8 88.1722 25.888 87.7702 26.064 87.4222C26.236 87.0702 26.48 86.7982 26.796 86.6062C27.112 86.4102 27.48 86.3122 27.9 86.3122C28.32 86.3122 28.688 86.4102 29.004 86.6062C29.32 86.7982 29.566 87.0702 29.742 87.4222C29.914 87.7702 30 88.1722 30 88.6282L30 90.5362L25.8 90.5362ZM29.202 88.6762C29.202 88.2562 29.086 87.9222 28.854 87.6742C28.618 87.4222 28.3 87.2962 27.9 87.2962C27.5 87.2962 27.184 87.4222 26.952 87.6742C26.716 87.9222 26.598 88.2562 26.598 88.6762L26.598 89.5642L29.202 89.5642L29.202 88.6762ZM25.8 85.5791L25.8 83.6711C25.8 83.2151 25.888 82.8131 26.064 82.4651C26.236 82.1131 26.48 81.8411 26.796 81.6491C27.112 81.4531 27.48 81.3551 27.9 81.3551C28.32 81.3551 28.688 81.4531 29.004 81.6491C29.32 81.8411 29.566 82.1131 29.742 82.4651C29.914 82.8131 30 83.2151 30 83.6711L30 85.5791L25.8 85.5791ZM29.202 83.7191C29.202 83.2991 29.086 82.9651 28.854 82.7171C28.618 82.4651 28.3 82.3391 27.9 82.3391C27.5 82.3391 27.184 82.4651 26.952 82.7171C26.716 82.9651 26.598 83.2991 26.598 83.7191L26.598 84.6071L29.202 84.6071L29.202 83.7191ZM25.8 80.6221L25.8 79.6501L29.208 79.6501L29.208 77.5441L30 77.5441L30 80.6221L25.8 80.6221ZM29.22 73.749L30 73.749L30 77.001L25.8 77.001L25.8 73.827L26.58 73.827L26.58 76.035L27.492 76.035L27.492 74.085L28.248 74.085L28.248 76.035L29.22 76.035L29.22 73.749Z" fill="#C0C0C0"/>
</g>
<g filter="url(#filter5_i_914_1558)">
<path d="M154.2 74.9716L154.2 75.9436L150 75.9436L150 74.9716L154.2 74.9716ZM154.2 80.7924L150 80.7924L150 79.9944L152.55 77.9004L150 77.9004L150 76.9404L154.2 76.9404L154.2 77.7444L151.65 79.8324L154.2 79.8324L154.2 80.7924ZM153.408 84.3553L153.408 83.0113L154.2 83.0113L154.2 86.6713L153.408 86.6713L153.408 85.3273L150 85.3273L150 84.3553L153.408 84.3553ZM154.2 91.0463L150 91.0463L150 90.0743L151.722 90.0743L151.722 88.1663L150 88.1663L150 87.1943L154.2 87.1943L154.2 88.1663L152.544 88.1663L152.544 90.0743L154.2 90.0743L154.2 91.0463ZM150.78 95.292L150 95.292L150 92.04L154.2 92.04L154.2 95.214L153.42 95.214L153.42 93.006L152.508 93.006L152.508 94.956L151.752 94.956L151.752 93.006L150.78 93.006L150.78 95.292ZM150 101.587L152.52 101.581L150.444 100.345L150.444 99.9066L152.466 98.6766L150 98.6766L150 97.7646L154.2 97.7646L154.2 98.5686L151.59 100.141L154.2 101.689L154.2 102.487L150 102.499L150 101.587ZM154.2 103.495L154.2 104.467L150 104.467L150 103.495L154.2 103.495ZM154.2 105.464L154.2 107.372C154.2 107.828 154.112 108.23 153.936 108.578C153.764 108.93 153.52 109.202 153.204 109.394C152.888 109.59 152.52 109.688 152.1 109.688C151.68 109.688 151.312 109.59 150.996 109.394C150.68 109.202 150.434 108.93 150.258 108.578C150.086 108.23 150 107.828 150 107.372L150 105.464L154.2 105.464ZM150.798 107.324C150.798 107.744 150.914 108.078 151.146 108.326C151.382 108.578 151.7 108.704 152.1 108.704C152.5 108.704 152.816 108.578 153.048 108.326C153.284 108.078 153.402 107.744 153.402 107.324L153.402 106.436L150.798 106.436L150.798 107.324ZM154.2 110.421L154.2 112.329C154.2 112.785 154.112 113.187 153.936 113.535C153.764 113.887 153.52 114.159 153.204 114.351C152.888 114.547 152.52 114.645 152.1 114.645C151.68 114.645 151.312 114.547 150.996 114.351C150.68 114.159 150.434 113.887 150.258 113.535C150.086 113.187 150 112.785 150 112.329L150 110.421L154.2 110.421ZM150.798 112.281C150.798 112.701 150.914 113.035 151.146 113.283C151.382 113.535 151.7 113.661 152.1 113.661C152.5 113.661 152.816 113.535 153.048 113.283C153.284 113.035 153.402 112.701 153.402 112.281L153.402 111.393L150.798 111.393L150.798 112.281ZM154.2 115.378L154.2 116.35L150.792 116.35L150.792 118.456L150 118.456L150 115.378L154.2 115.378ZM150.78 122.251L150 122.251L150 118.999L154.2 118.999L154.2 122.173L153.42 122.173L153.42 119.965L152.508 119.965L152.508 121.915L151.752 121.915L151.752 119.965L150.78 119.965L150.78 122.251Z" fill="#C0C0C0"/>
</g>
<g filter="url(#filter6_i_914_1558)">
<path d="M62.195 89.7832C62.9194 88.265 65.0806 88.265 65.805 89.7832L66.9887 92.2638C67.2803 92.8748 67.8611 93.2969 68.5324 93.3853L71.2573 93.7445C72.9251 93.9644 73.5929 96.0197 72.3729 97.1779L70.3795 99.0702C69.8885 99.5363 69.6666 100.219 69.7899 100.885L70.2903 103.587C70.5966 105.242 68.8482 106.512 67.3697 105.709L64.954 104.398C64.359 104.075 63.641 104.075 63.046 104.398L60.6303 105.709C59.1518 106.512 57.4034 105.242 57.7097 103.587L58.2101 100.885C58.3334 100.219 58.1115 99.5363 57.6205 99.0702L55.6271 97.1779C54.4071 96.0197 55.0749 93.9644 56.7427 93.7445L59.4676 93.3853C60.1389 93.2969 60.7197 92.8748 61.0113 92.2638L62.195 89.7832Z" fill="#C6C6C6"/>
</g>
<g filter="url(#filter7_i_914_1558)">
<path d="M88.195 89.7832C88.9194 88.265 91.0806 88.265 91.805 89.7832L92.9887 92.2638C93.2803 92.8748 93.8611 93.2969 94.5324 93.3853L97.2573 93.7445C98.9251 93.9644 99.5929 96.0197 98.3729 97.1779L96.3795 99.0702C95.8885 99.5363 95.6666 100.219 95.7899 100.885L96.2903 103.587C96.5966 105.242 94.8482 106.512 93.3697 105.709L90.954 104.398C90.359 104.075 89.641 104.075 89.046 104.398L86.6303 105.709C85.1518 106.512 83.4034 105.242 83.7097 103.587L84.2101 100.885C84.3334 100.219 84.1115 99.5363 83.6205 99.0702L81.6271 97.1779C80.4071 96.0197 81.0749 93.9644 82.7427 93.7445L85.4676 93.3853C86.1389 93.2969 86.7197 92.8748 87.0113 92.2638L88.195 89.7832Z" fill="#C6C6C6"/>
</g>
<g filter="url(#filter8_i_914_1558)">
<path d="M114.195 89.7832C114.919 88.265 117.081 88.265 117.805 89.7832L118.989 92.2638C119.28 92.8748 119.861 93.2969 120.532 93.3853L123.257 93.7445C124.925 93.9644 125.593 96.0197 124.373 97.1779L122.379 99.0702C121.888 99.5363 121.667 100.219 121.79 100.885L122.29 103.587C122.597 105.242 120.848 106.512 119.37 105.709L116.954 104.398C116.359 104.075 115.641 104.075 115.046 104.398L112.63 105.709C111.152 106.512 109.403 105.242 109.71 103.587L110.21 100.885C110.333 100.219 110.112 99.5363 109.621 99.0702L107.627 97.1779C106.407 96.0197 107.075 93.9644 108.743 93.7445L111.468 93.3853C112.139 93.2969 112.72 92.8748 113.011 92.2638L114.195 89.7832Z" fill="#C6C6C6"/>
</g>
<g filter="url(#filter9_i_914_1558)">
<path d="M113.635 42.9662C113.348 42.8002 113.091 42.601 112.865 42.3688C112.644 42.1352 112.488 41.909 112.397 41.6903L113.049 41.2213C113.139 41.4256 113.271 41.6244 113.446 41.8177C113.621 42.011 113.816 42.1697 114.03 42.2937C114.269 42.4317 114.466 42.499 114.62 42.4957C114.777 42.489 114.889 42.4267 114.957 42.3089C115.007 42.2223 115.013 42.1313 114.976 42.0359C114.944 41.939 114.885 41.8422 114.797 41.7456C114.713 41.651 114.593 41.5309 114.437 41.3853C114.198 41.1595 114.009 40.9627 113.87 40.7948C113.732 40.627 113.64 40.4334 113.596 40.2139C113.555 39.9964 113.605 39.7664 113.745 39.5239C113.867 39.3126 114.034 39.1551 114.247 39.0513C114.461 38.9441 114.711 38.9063 114.998 38.9378C115.288 38.9714 115.599 39.0841 115.932 39.2761C116.164 39.4101 116.375 39.5689 116.565 39.7523C116.754 39.9357 116.902 40.1274 117.009 40.3273L116.38 40.8164C116.154 40.4319 115.873 40.1426 115.537 39.9486C115.301 39.8126 115.104 39.7497 114.946 39.76C114.791 39.7722 114.678 39.8406 114.606 39.9653C114.534 40.09 114.544 40.2206 114.636 40.3569C114.734 40.4918 114.899 40.6657 115.131 40.8786C115.371 41.1044 115.559 41.3012 115.698 41.469C115.837 41.6369 115.928 41.8278 115.97 42.0418C116.016 42.2578 115.969 42.4871 115.829 42.7296C115.709 42.9374 115.541 43.094 115.323 43.1992C115.11 43.3029 114.859 43.338 114.569 43.3045C114.279 43.2709 113.968 43.1582 113.635 42.9662ZM117.89 40.4896L118.731 40.9756L116.631 44.6129L115.79 44.1269L117.89 40.4896ZM119.595 41.474L120.436 41.96L118.732 44.9114L120.556 45.9644L120.16 46.6503L117.495 45.1113L119.595 41.474ZM125.974 45.157L122.299 47.8853L121.468 47.4053L121.999 42.862L122.908 43.387L122.515 46.6241L125.137 44.674L125.974 45.157ZM127.384 49.9202L126.994 50.5957L124.178 48.9697L126.278 45.3324L129.026 46.9194L128.636 47.5949L126.724 46.4909L126.268 47.2807L127.957 48.2557L127.579 48.9104L125.89 47.9354L125.404 48.7772L127.384 49.9202ZM129.981 52.3204L129.865 50.9021L129.823 50.8781L129.09 50.4551L128.505 51.4684L127.664 50.9824L129.764 47.345L131.338 48.254C131.66 48.44 131.908 48.6547 132.082 48.8981C132.259 49.1435 132.354 49.4019 132.368 49.6734C132.383 49.9448 132.312 50.2157 132.156 50.4859C132 50.7561 131.799 50.9519 131.553 51.0734C131.313 51.1933 131.044 51.2363 130.744 51.2022L130.885 52.8424L129.981 52.3204ZM131.304 49.9939C131.422 49.7895 131.446 49.5956 131.376 49.4122C131.308 49.2254 131.148 49.0589 130.895 48.9129L130.209 48.5169L129.477 49.7848L130.163 50.1808C130.416 50.3268 130.64 50.3824 130.836 50.3475C131.032 50.3127 131.188 50.1948 131.304 49.9939Z" fill="#C0C0C0"/>
</g>
<g filter="url(#filter10_i_914_1558)">
<path d="M136.387 54.7664C136.131 54.6184 135.967 54.4133 135.897 54.151C135.834 53.8927 135.876 53.6354 136.024 53.3791C136.168 53.1297 136.368 52.9678 136.623 52.8935C136.885 52.8233 137.145 52.8621 137.401 53.0101C137.657 53.1581 137.817 53.3613 137.881 53.6195C137.951 53.8818 137.914 54.1377 137.77 54.3871C137.622 54.6434 137.417 54.8067 137.155 54.877C136.899 54.9513 136.643 54.9144 136.387 54.7664Z" fill="#C0C0C0"/>
</g>
<g filter="url(#filter11_i_914_1558)">
<path d="M108.138 38.7665C107.882 38.6185 107.718 38.4133 107.648 38.1511C107.585 37.8928 107.627 37.6355 107.775 37.3791C107.919 37.1297 108.119 36.9679 108.374 36.8936C108.636 36.8233 108.896 36.8622 109.152 37.0102C109.408 37.1582 109.568 37.3613 109.632 37.6196C109.702 37.8819 109.665 38.1377 109.521 38.3871C109.373 38.6435 109.168 38.8068 108.906 38.8771C108.65 38.9513 108.394 38.9145 108.138 38.7665Z" fill="#C0C0C0"/>
</g>
<g filter="url(#filter12_i_914_1558)">
<path d="M66.7386 153.551C67.0262 153.717 67.283 153.917 67.5092 154.149C67.7299 154.382 67.8857 154.609 67.9765 154.827L67.3247 155.296C67.2349 155.092 67.1025 154.893 66.9278 154.7C66.753 154.507 66.5582 154.348 66.3434 154.224C66.1044 154.086 65.9077 154.019 65.7534 154.022C65.5971 154.029 65.485 154.091 65.417 154.209C65.367 154.295 65.3606 154.386 65.3979 154.482C65.4297 154.579 65.4893 154.675 65.5767 154.772C65.6606 154.867 65.7806 154.987 65.9368 155.132C66.1759 155.358 66.3648 155.555 66.5035 155.723C66.6421 155.891 66.7336 156.084 66.7777 156.304C66.8184 156.521 66.7688 156.751 66.6288 156.994C66.5068 157.205 66.3396 157.362 66.1273 157.466C65.913 157.573 65.6625 157.611 65.3759 157.58C65.0858 157.546 64.7745 157.433 64.4419 157.241C64.2098 157.107 63.9989 156.949 63.8092 156.765C63.6195 156.582 63.4715 156.39 63.3653 156.19L63.9941 155.701C64.2201 156.086 64.5011 156.375 64.8371 156.569C65.0727 156.705 65.2696 156.768 65.4279 156.758C65.5828 156.745 65.6962 156.677 65.7682 156.552C65.8402 156.428 65.8301 156.297 65.7379 156.161C65.6403 156.026 65.4751 155.852 65.2424 155.639C65.0033 155.413 64.8144 155.216 64.6757 155.049C64.537 154.881 64.4463 154.69 64.4036 154.476C64.3575 154.26 64.4044 154.03 64.5444 153.788C64.6644 153.58 64.8333 153.424 65.051 153.318C65.2634 153.215 65.5146 153.18 65.8047 153.213C66.0948 153.247 66.4061 153.359 66.7386 153.551ZM62.4842 156.028L61.6424 155.542L63.7424 151.905L64.5842 152.391L62.4842 156.028ZM60.7792 155.044L59.9374 154.558L61.6414 151.606L59.8176 150.553L60.2136 149.867L62.8792 151.406L60.7792 155.044ZM54.3999 151.361L58.0744 148.632L58.9058 149.112L58.375 153.656L57.4657 153.131L57.8589 149.893L55.2365 151.844L54.3999 151.361ZM52.9899 146.597L53.3799 145.922L56.1963 147.548L54.0963 151.185L51.3475 149.598L51.7375 148.923L53.6497 150.027L54.1057 149.237L52.4169 148.262L52.7949 147.607L54.4837 148.582L54.9697 147.74L52.9899 146.597ZM50.3927 144.197L50.5092 145.615L50.5507 145.639L51.2834 146.062L51.8684 145.049L52.7102 145.535L50.6102 149.173L49.0357 148.264C48.7136 148.078 48.4657 147.863 48.2921 147.619C48.1151 147.374 48.0195 147.116 48.0054 146.844C47.9912 146.573 48.0621 146.302 48.2181 146.032C48.3741 145.761 48.5749 145.566 48.8206 145.444C49.0607 145.324 49.3303 145.281 49.6293 145.315L49.4885 143.675L50.3927 144.197ZM49.0703 146.524C48.9523 146.728 48.9281 146.922 48.9977 147.105C49.0654 147.292 49.2256 147.459 49.4785 147.605L50.1644 148.001L50.8964 146.733L50.2105 146.337C49.9576 146.191 49.7334 146.135 49.5377 146.17C49.3421 146.205 49.1863 146.323 49.0703 146.524Z" fill="#C0C0C0"/>
</g>
<g filter="url(#filter13_i_914_1558)">
<path d="M43.9872 141.751C44.2435 141.899 44.4068 142.104 44.4771 142.367C44.5405 142.625 44.4981 142.882 44.3501 143.139C44.2061 143.388 44.0065 143.55 43.7511 143.624C43.4888 143.694 43.2295 143.656 42.9732 143.508C42.7168 143.36 42.557 143.156 42.4936 142.898C42.4234 142.636 42.4602 142.38 42.6042 142.131C42.7522 141.874 42.9574 141.711 43.2196 141.641C43.475 141.566 43.7308 141.603 43.9872 141.751Z" fill="#C0C0C0"/>
</g>
<g filter="url(#filter14_i_914_1558)">
<path d="M72.2358 158.751C72.4922 158.899 72.6555 159.104 72.7258 159.367C72.7891 159.625 72.7468 159.882 72.5988 160.139C72.4548 160.388 72.2551 160.55 71.9998 160.624C71.7375 160.694 71.4782 160.656 71.2218 160.508C70.9655 160.36 70.8056 160.156 70.7423 159.898C70.672 159.636 70.7089 159.38 70.8529 159.131C71.0009 158.874 71.206 158.711 71.4683 158.641C71.7236 158.566 71.9795 158.603 72.2358 158.751Z" fill="#C0C0C0"/>
</g>
</g>
<defs>
<filter id="filter0_d_914_1558" x="0.450012" y="0.475208" width="183.1" height="199.05" filterUnits="userSpaceOnUse" color-interpolation-filters="sRGB">
<feFlood flood-opacity="0" result="BackgroundImageFix"/>
<feColorMatrix in="SourceAlpha" type="matrix" values="0 0 0 0 0 0 0 0 0 0 0 0 0 0 0 0 0 0 127 0" result="hardAlpha"/>
<feOffset dx="2" dy="2"/>
<feGaussianBlur stdDeviation="12"/>
<feComposite in2="hardAlpha" operator="out"/>
<feColorMatrix type="matrix" values="0 0 0 0 0 0 0 0 0 0 0 0 0 0 0 0 0 0 0.25 0"/>
<feBlend mode="normal" in2="BackgroundImageFix" result="effect1_dropShadow_914_1558"/>
<feBlend mode="normal" in="SourceGraphic" in2="effect1_dropShadow_914_1558" result="shape"/>
</filter>
<filter id="filter1_d_914_1558" x="18.45" y="22.4752" width="143.1" height="159.05" filterUnits="userSpaceOnUse" color-interpolation-filters="sRGB">
<feFlood flood-opacity="0" result="BackgroundImageFix"/>
<feColorMatrix in="SourceAlpha" type="matrix" values="0 0 0 0 0 0 0 0 0 0 0 0 0 0 0 0 0 0 127 0" result="hardAlpha"/>
<feOffset dy="4"/>
<feGaussianBlur stdDeviation="2"/>
<feComposite in2="hardAlpha" operator="out"/>
<feColorMatrix type="matrix" values="0 0 0 0 0 0 0 0 0 0 0 0 0 0 0 0 0 0 0.25 0"/>
<feBlend mode="normal" in2="BackgroundImageFix" result="effect1_dropShadow_914_1558"/>
<feBlend mode="normal" in="SourceGraphic" in2="effect1_dropShadow_914_1558" result="shape"/>
</filter>
<filter id="filter2_i_914_1558" x="32.3423" y="34.9056" width="115.315" height="130.189" filterUnits="userSpaceOnUse" color-interpolation-filters="sRGB">
<feFlood flood-opacity="0" result="BackgroundImageFix"/>
<feBlend mode="normal" in="SourceGraphic" in2="BackgroundImageFix" result="shape"/>
<feColorMatrix in="SourceAlpha" type="matrix" values="0 0 0 0 0 0 0 0 0 0 0 0 0 0 0 0 0 0 127 0" result="hardAlpha"/>
<feOffset dy="4"/>
<feGaussianBlur stdDeviation="2"/>
<feComposite in2="hardAlpha" operator="arithmetic" k2="-1" k3="1"/>
<feColorMatrix type="matrix" values="0 0 0 0 0 0 0 0 0 0 0 0 0 0 0 0 0 0 0.25 0"/>
<feBlend mode="normal" in2="shape" result="effect1_innerShadow_914_1558"/>
</filter>
<filter id="filter3_d_914_1558" x="39.6677" y="46.9752" width="101.665" height="111.05" filterUnits="userSpaceOnUse" color-interpolation-filters="sRGB">
<feFlood flood-opacity="0" result="BackgroundImageFix"/>
<feColorMatrix in="SourceAlpha" type="matrix" values="0 0 0 0 0 0 0 0 0 0 0 0 0 0 0 0 0 0 127 0" result="hardAlpha"/>
<feOffset dy="4"/>
<feGaussianBlur stdDeviation="2"/>
<feComposite in2="hardAlpha" operator="out"/>
<feColorMatrix type="matrix" values="0 0 0 0 0 0 0 0 0 0 0 0 0 0 0 0 0 0 0.25 0"/>
<feBlend mode="normal" in2="BackgroundImageFix" result="effect1_dropShadow_914_1558"/>
<feBlend mode="normal" in="SourceGraphic" in2="effect1_dropShadow_914_1558" result="shape"/>
</filter>
<filter id="filter4_i_914_1558" x="25.8" y="73.749" width="4.20001" height="51.2793" filterUnits="userSpaceOnUse" color-interpolation-filters="sRGB">
<feFlood flood-opacity="0" result="BackgroundImageFix"/>
<feBlend mode="normal" in="SourceGraphic" in2="BackgroundImageFix" result="shape"/>
<feColorMatrix in="SourceAlpha" type="matrix" values="0 0 0 0 0 0 0 0 0 0 0 0 0 0 0 0 0 0 127 0" result="hardAlpha"/>
<feOffset dy="4"/>
<feGaussianBlur stdDeviation="2"/>
<feComposite in2="hardAlpha" operator="arithmetic" k2="-1" k3="1"/>
<feColorMatrix type="matrix" values="0 0 0 0 0 0 0 0 0 0 0 0 0 0 0 0 0 0 0.25 0"/>
<feBlend mode="normal" in2="shape" result="effect1_innerShadow_914_1558"/>
</filter>
<filter id="filter5_i_914_1558" x="150" y="74.9716" width="4.20001" height="51.2793" filterUnits="userSpaceOnUse" color-interpolation-filters="sRGB">
<feFlood flood-opacity="0" result="BackgroundImageFix"/>
<feBlend mode="normal" in="SourceGraphic" in2="BackgroundImageFix" result="shape"/>
<feColorMatrix in="SourceAlpha" type="matrix" values="0 0 0 0 0 0 0 0 0 0 0 0 0 0 0 0 0 0 127 0" result="hardAlpha"/>
<feOffset dy="4"/>
<feGaussianBlur stdDeviation="2"/>
<feComposite in2="hardAlpha" operator="arithmetic" k2="-1" k3="1"/>
<feColorMatrix type="matrix" values="0 0 0 0 0 0 0 0 0 0 0 0 0 0 0 0 0 0 0.25 0"/>
<feBlend mode="normal" in2="shape" result="effect1_innerShadow_914_1558"/>
</filter>
<filter id="filter6_i_914_1558" x="55.0018" y="88.6445" width="17.9965" height="21.3118" filterUnits="userSpaceOnUse" color-interpolation-filters="sRGB">
<feFlood flood-opacity="0" result="BackgroundImageFix"/>
<feBlend mode="normal" in="SourceGraphic" in2="BackgroundImageFix" result="shape"/>
<feColorMatrix in="SourceAlpha" type="matrix" values="0 0 0 0 0 0 0 0 0 0 0 0 0 0 0 0 0 0 127 0" result="hardAlpha"/>
<feOffset dy="4"/>
<feGaussianBlur stdDeviation="2"/>
<feComposite in2="hardAlpha" operator="arithmetic" k2="-1" k3="1"/>
<feColorMatrix type="matrix" values="0 0 0 0 0 0 0 0 0 0 0 0 0 0 0 0 0 0 0.25 0"/>
<feBlend mode="normal" in2="shape" result="effect1_innerShadow_914_1558"/>
</filter>
<filter id="filter7_i_914_1558" x="81.0018" y="88.6445" width="17.9965" height="21.3118" filterUnits="userSpaceOnUse" color-interpolation-filters="sRGB">
<feFlood flood-opacity="0" result="BackgroundImageFix"/>
<feBlend mode="normal" in="SourceGraphic" in2="BackgroundImageFix" result="shape"/>
<feColorMatrix in="SourceAlpha" type="matrix" values="0 0 0 0 0 0 0 0 0 0 0 0 0 0 0 0 0 0 127 0" result="hardAlpha"/>
<feOffset dy="4"/>
<feGaussianBlur stdDeviation="2"/>
<feComposite in2="hardAlpha" operator="arithmetic" k2="-1" k3="1"/>
<feColorMatrix type="matrix" values="0 0 0 0 0 0 0 0 0 0 0 0 0 0 0 0 0 0 0.25 0"/>
<feBlend mode="normal" in2="shape" result="effect1_innerShadow_914_1558"/>
</filter>
<filter id="filter8_i_914_1558" x="107.002" y="88.6445" width="17.9965" height="21.3118" filterUnits="userSpaceOnUse" color-interpolation-filters="sRGB">
<feFlood flood-opacity="0" result="BackgroundImageFix"/>
<feBlend mode="normal" in="SourceGraphic" in2="BackgroundImageFix" result="shape"/>
<feColorMatrix in="SourceAlpha" type="matrix" values="0 0 0 0 0 0 0 0 0 0 0 0 0 0 0 0 0 0 127 0" result="hardAlpha"/>
<feOffset dy="4"/>
<feGaussianBlur stdDeviation="2"/>
<feComposite in2="hardAlpha" operator="arithmetic" k2="-1" k3="1"/>
<feColorMatrix type="matrix" values="0 0 0 0 0 0 0 0 0 0 0 0 0 0 0 0 0 0 0.25 0"/>
<feBlend mode="normal" in2="shape" result="effect1_innerShadow_914_1558"/>
</filter>
<filter id="filter9_i_914_1558" x="112.154" y="38.3491" width="20.867" height="18.5556" filterUnits="userSpaceOnUse" color-interpolation-filters="sRGB">
<feFlood flood-opacity="0" result="BackgroundImageFix"/>
<feBlend mode="normal" in="SourceGraphic" in2="BackgroundImageFix" result="shape"/>
<feColorMatrix in="SourceAlpha" type="matrix" values="0 0 0 0 0 0 0 0 0 0 0 0 0 0 0 0 0 0 127 0" result="hardAlpha"/>
<feOffset dy="4"/>
<feGaussianBlur stdDeviation="2"/>
<feComposite in2="hardAlpha" operator="arithmetic" k2="-1" k3="1"/>
<feColorMatrix type="matrix" values="0 0 0 0 0 0 0 0 0 0 0 0 0 0 0 0 0 0 0.25 0"/>
<feBlend mode="normal" in2="shape" result="effect1_innerShadow_914_1558"/>
</filter>
<filter id="filter10_i_914_1558" x="135.514" y="52.5061" width="2.75989" height="6.7643" filterUnits="userSpaceOnUse" color-interpolation-filters="sRGB">
<feFlood flood-opacity="0" result="BackgroundImageFix"/>
<feBlend mode="normal" in="SourceGraphic" in2="BackgroundImageFix" result="shape"/>
<feColorMatrix in="SourceAlpha" type="matrix" values="0 0 0 0 0 0 0 0 0 0 0 0 0 0 0 0 0 0 127 0" result="hardAlpha"/>
<feOffset dy="4"/>
<feGaussianBlur stdDeviation="2"/>
<feComposite in2="hardAlpha" operator="arithmetic" k2="-1" k3="1"/>
<feColorMatrix type="matrix" values="0 0 0 0 0 0 0 0 0 0 0 0 0 0 0 0 0 0 0.25 0"/>
<feBlend mode="normal" in2="shape" result="effect1_innerShadow_914_1558"/>
</filter>
<filter id="filter11_i_914_1558" x="107.265" y="36.5062" width="2.75989" height="6.7643" filterUnits="userSpaceOnUse" color-interpolation-filters="sRGB">
<feFlood flood-opacity="0" result="BackgroundImageFix"/>
<feBlend mode="normal" in="SourceGraphic" in2="BackgroundImageFix" result="shape"/>
<feColorMatrix in="SourceAlpha" type="matrix" values="0 0 0 0 0 0 0 0 0 0 0 0 0 0 0 0 0 0 127 0" result="hardAlpha"/>
<feOffset dy="4"/>
<feGaussianBlur stdDeviation="2"/>
<feComposite in2="hardAlpha" operator="arithmetic" k2="-1" k3="1"/>
<feColorMatrix type="matrix" values="0 0 0 0 0 0 0 0 0 0 0 0 0 0 0 0 0 0 0.25 0"/>
<feBlend mode="normal" in2="shape" result="effect1_innerShadow_914_1558"/>
</filter>
<filter id="filter12_i_914_1558" x="47.3525" y="143.613" width="20.867" height="18.5556" filterUnits="userSpaceOnUse" color-interpolation-filters="sRGB">
<feFlood flood-opacity="0" result="BackgroundImageFix"/>
<feBlend mode="normal" in="SourceGraphic" in2="BackgroundImageFix" result="shape"/>
<feColorMatrix in="SourceAlpha" type="matrix" values="0 0 0 0 0 0 0 0 0 0 0 0 0 0 0 0 0 0 127 0" result="hardAlpha"/>
<feOffset dy="4"/>
<feGaussianBlur stdDeviation="2"/>
<feComposite in2="hardAlpha" operator="arithmetic" k2="-1" k3="1"/>
<feColorMatrix type="matrix" values="0 0 0 0 0 0 0 0 0 0 0 0 0 0 0 0 0 0 0.25 0"/>
<feBlend mode="normal" in2="shape" result="effect1_innerShadow_914_1558"/>
</filter>
<filter id="filter13_i_914_1558" x="42.1002" y="141.247" width="2.75989" height="6.7643" filterUnits="userSpaceOnUse" color-interpolation-filters="sRGB">
<feFlood flood-opacity="0" result="BackgroundImageFix"/>
<feBlend mode="normal" in="SourceGraphic" in2="BackgroundImageFix" result="shape"/>
<feColorMatrix in="SourceAlpha" type="matrix" values="0 0 0 0 0 0 0 0 0 0 0 0 0 0 0 0 0 0 127 0" result="hardAlpha"/>
<feOffset dy="4"/>
<feGaussianBlur stdDeviation="2"/>
<feComposite in2="hardAlpha" operator="arithmetic" k2="-1" k3="1"/>
<feColorMatrix type="matrix" values="0 0 0 0 0 0 0 0 0 0 0 0 0 0 0 0 0 0 0.25 0"/>
<feBlend mode="normal" in2="shape" result="effect1_innerShadow_914_1558"/>
</filter>
<filter id="filter14_i_914_1558" x="70.3489" y="158.247" width="2.75989" height="6.7643" filterUnits="userSpaceOnUse" color-interpolation-filters="sRGB">
<feFlood flood-opacity="0" result="BackgroundImageFix"/>
<feBlend mode="normal" in="SourceGraphic" in2="BackgroundImageFix" result="shape"/>
<feColorMatrix in="SourceAlpha" type="matrix" values="0 0 0 0 0 0 0 0 0 0 0 0 0 0 0 0 0 0 127 0" result="hardAlpha"/>
<feOffset dy="4"/>
<feGaussianBlur stdDeviation="2"/>
<feComposite in2="hardAlpha" operator="arithmetic" k2="-1" k3="1"/>
<feColorMatrix type="matrix" values="0 0 0 0 0 0 0 0 0 0 0 0 0 0 0 0 0 0 0.25 0"/>
<feBlend mode="normal" in2="shape" result="effect1_innerShadow_914_1558"/>
</filter>
</defs>
</svg>
