<svg width="213" height="213" viewBox="0 0 213 213" fill="none" xmlns="http://www.w3.org/2000/svg">
<path d="M98.5 5.1188C103.45 2.26068 109.55 2.26068 114.5 5.1188L166.05 34.8812C171 37.7393 174.05 43.0214 174.05 48.7376V108.262C174.05 113.979 171 119.261 166.05 122.119L114.5 151.881C109.55 154.739 103.45 154.739 98.5 151.881L46.95 122.119C41.9996 119.261 38.95 113.979 38.95 108.262V48.7376C38.95 43.0214 41.9996 37.7393 46.95 34.8812L98.5 5.1188Z" fill="#5E41D8"/>
<path d="M98.5 31.1188C103.45 28.2607 109.55 28.2607 114.5 31.1188L143.533 47.8812C148.484 50.7393 151.533 56.0214 151.533 61.7376V95.2624C151.533 100.979 148.484 106.261 143.533 109.119L114.5 125.881C109.55 128.739 103.45 128.739 98.5 125.881L69.4667 109.119C64.5163 106.261 61.4667 100.979 61.4667 95.2624V61.7376C61.4667 56.0214 64.5163 50.7393 69.4667 47.8812L98.5 31.1188Z" fill="#F5F5F5"/>
<path d="M108.667 75.8333V62.5C108.667 61.7927 108.386 61.1145 107.886 60.6144C107.386 60.1143 106.707 59.8333 106 59.8333C105.293 59.8333 104.614 60.1143 104.114 60.6144C103.614 61.1145 103.333 61.7927 103.333 62.5V78.5C103.333 79.2072 103.614 79.8855 104.114 80.3856C104.614 80.8857 105.293 81.1666 106 81.1666H119.333C120.041 81.1666 120.719 80.8857 121.219 80.3856C121.719 79.8855 122 79.2072 122 78.5C122 77.7927 121.719 77.1145 121.219 76.6144C120.719 76.1143 120.041 75.8333 119.333 75.8333H108.667ZM106 105.167C91.272 105.167 79.3333 93.228 79.3333 78.5C79.3333 63.772 91.272 51.8333 106 51.8333C120.728 51.8333 132.667 63.772 132.667 78.5C132.667 93.228 120.728 105.167 106 105.167Z" fill="#5E41D8"/>
<path d="M8.70347 189.052H0.639468V184.3H22.5995V189.052H14.5355V209.5H8.70347V189.052ZM31.8574 184.3H37.6894V209.5H31.8574V184.3ZM72.7219 209.5L72.6859 194.38L65.2699 206.836H62.6419L55.2619 194.704V209.5H49.7899V184.3H54.6139L64.0459 199.96L73.3339 184.3H78.1219L78.1939 209.5H72.7219ZM109.805 204.82V209.5H90.2927V184.3H109.337V188.98H96.0887V194.452H107.789V198.988H96.0887V204.82H109.805ZM139.069 196.396C140.509 196.852 141.637 197.62 142.453 198.7C143.269 199.756 143.677 201.064 143.677 202.624C143.677 204.832 142.813 206.536 141.085 207.736C139.381 208.912 136.885 209.5 133.597 209.5H120.565V184.3H132.877C135.949 184.3 138.301 184.888 139.933 186.064C141.589 187.24 142.417 188.836 142.417 190.852C142.417 192.076 142.117 193.168 141.517 194.128C140.941 195.088 140.125 195.844 139.069 196.396ZM126.361 188.692V194.632H132.157C133.597 194.632 134.689 194.38 135.433 193.876C136.177 193.372 136.549 192.628 136.549 191.644C136.549 190.66 136.177 189.928 135.433 189.448C134.689 188.944 133.597 188.692 132.157 188.692H126.361ZM133.165 205.108C134.701 205.108 135.853 204.856 136.621 204.352C137.413 203.848 137.809 203.068 137.809 202.012C137.809 199.924 136.261 198.88 133.165 198.88H126.361V205.108H133.165ZM166.416 209.932C163.8 209.932 161.436 209.368 159.324 208.24C157.236 207.112 155.592 205.564 154.392 203.596C153.216 201.604 152.628 199.372 152.628 196.9C152.628 194.428 153.216 192.208 154.392 190.24C155.592 188.248 157.236 186.688 159.324 185.56C161.436 184.432 163.8 183.868 166.416 183.868C169.032 183.868 171.384 184.432 173.472 185.56C175.56 186.688 177.204 188.248 178.404 190.24C179.604 192.208 180.204 194.428 180.204 196.9C180.204 199.372 179.604 201.604 178.404 203.596C177.204 205.564 175.56 207.112 173.472 208.24C171.384 209.368 169.032 209.932 166.416 209.932ZM166.416 204.964C167.904 204.964 169.248 204.628 170.448 203.956C171.648 203.26 172.584 202.3 173.256 201.076C173.952 199.852 174.3 198.46 174.3 196.9C174.3 195.34 173.952 193.948 173.256 192.724C172.584 191.5 171.648 190.552 170.448 189.88C169.248 189.184 167.904 188.836 166.416 188.836C164.928 188.836 163.584 189.184 162.384 189.88C161.184 190.552 160.236 191.5 159.54 192.724C158.868 193.948 158.532 195.34 158.532 196.9C158.532 198.46 158.868 199.852 159.54 201.076C160.236 202.3 161.184 203.26 162.384 203.956C163.584 204.628 164.928 204.964 166.416 204.964ZM205.669 209.5L199.585 200.752L193.609 209.5H186.913L196.237 196.684L187.381 184.3H194.005L199.801 192.472L205.489 184.3H211.789L203.005 196.468L212.401 209.5H205.669Z" fill="#1F2433"/>
</svg>
