<svg width="184" height="200" viewBox="0 0 184 200" fill="none" xmlns="http://www.w3.org/2000/svg">
<g filter="url(#filter0_d_914_1519)">
<g filter="url(#filter1_d_914_1519)">
<path d="M82 24.6188C86.9504 21.7607 93.0496 21.7607 98 24.6188L149.55 54.3812C154.5 57.2393 157.55 62.5214 157.55 68.2376V127.762C157.55 133.479 154.5 138.761 149.55 141.619L98 171.381C93.0496 174.239 86.9504 174.239 82 171.381L30.45 141.619C25.4996 138.761 22.45 133.479 22.45 127.762V68.2376C22.45 62.5214 25.4996 57.2393 30.45 54.3812L82 24.6188Z" fill="#FBD978"/>
</g>
<g filter="url(#filter2_i_914_1519)">
<path d="M82.0914 37.4968C86.9952 34.7086 93.0048 34.7086 97.9086 37.4968L139.066 60.8992C144.068 63.7433 147.158 69.0541 147.158 74.808V121.192C147.158 126.946 144.068 132.257 139.066 135.101L97.9086 158.503C93.0048 161.291 86.9952 161.291 82.0914 158.503L40.9337 135.101C35.9319 132.257 32.8423 126.946 32.8423 121.192V74.808C32.8423 69.0541 35.9319 63.7433 40.9337 60.8992L82.0914 37.4968Z" fill="#FFD14E"/>
</g>
<path d="M82.0914 37.4968C86.9952 34.7086 93.0048 34.7086 97.9086 37.4968L139.066 60.8992C144.068 63.7433 147.158 69.0541 147.158 74.808V121.192C147.158 126.946 144.068 132.257 139.066 135.101L97.9086 158.503C93.0048 161.291 86.9952 161.291 82.0914 158.503L40.9337 135.101C35.9319 132.257 32.8423 126.946 32.8423 121.192V74.808C32.8423 69.0541 35.9319 63.7433 40.9337 60.8992L82.0914 37.4968Z" stroke="#FFE085"/>
<g filter="url(#filter3_d_914_1519)">
<path d="M82.5 49.6188C87.4504 46.7607 93.5496 46.7607 98.5 49.6188L128.832 67.1312C133.783 69.9893 136.832 75.2714 136.832 80.9876V116.012C136.832 121.729 133.783 127.011 128.832 129.869L98.5 147.381C93.5496 150.239 87.4504 150.239 82.5 147.381L52.1676 129.869C47.2172 127.011 44.1676 121.729 44.1676 116.012V80.9876C44.1676 75.2714 47.2172 69.9893 52.1676 67.1312L82.5 49.6188Z" fill="#FFDB73"/>
<path d="M82.5 49.6188C87.4504 46.7607 93.5496 46.7607 98.5 49.6188L128.832 67.1312C133.783 69.9893 136.832 75.2714 136.832 80.9876V116.012C136.832 121.729 133.783 127.011 128.832 129.869L98.5 147.381C93.5496 150.239 87.4504 150.239 82.5 147.381L52.1676 129.869C47.2172 127.011 44.1676 121.729 44.1676 116.012V80.9876C44.1676 75.2714 47.2172 69.9893 52.1676 67.1312L82.5 49.6188Z" stroke="#FFCB33"/>
</g>
<g filter="url(#filter4_i_914_1519)">
<path d="M25.8 118.983L30 120.357L30 121.401L27.156 122.325L30 123.279L30 124.317L25.8 125.697L25.8 124.689L28.752 123.741L25.8 122.751L25.8 121.851L28.776 120.891L25.8 119.913L25.8 118.983ZM25.8 114.588L30 114.588L30 115.56L28.278 115.56L28.278 117.468L30 117.468L30 118.44L25.8 118.44L25.8 117.468L27.456 117.468L27.456 115.56L25.8 115.56L25.8 114.588ZM30.072 111.561C30.072 111.997 29.978 112.391 29.79 112.743C29.602 113.091 29.344 113.365 29.016 113.565C28.684 113.761 28.312 113.859 27.9 113.859C27.488 113.859 27.118 113.761 26.79 113.565C26.458 113.365 26.198 113.091 26.01 112.743C25.822 112.391 25.728 111.997 25.728 111.561C25.728 111.125 25.822 110.733 26.01 110.385C26.198 110.037 26.458 109.763 26.79 109.563C27.118 109.363 27.488 109.263 27.9 109.263C28.312 109.263 28.684 109.363 29.016 109.563C29.344 109.763 29.602 110.037 29.79 110.385C29.978 110.733 30.072 111.125 30.072 111.561ZM29.244 111.561C29.244 111.313 29.188 111.089 29.076 110.889C28.96 110.689 28.8 110.533 28.596 110.421C28.392 110.305 28.16 110.247 27.9 110.247C27.64 110.247 27.408 110.305 27.204 110.421C27 110.533 26.842 110.689 26.73 110.889C26.614 111.089 26.556 111.313 26.556 111.561C26.556 111.809 26.614 112.033 26.73 112.233C26.842 112.433 27 112.591 27.204 112.707C27.408 112.819 27.64 112.875 27.9 112.875C28.16 112.875 28.392 112.819 28.596 112.707C28.8 112.591 28.96 112.433 29.076 112.233C29.188 112.033 29.244 111.809 29.244 111.561ZM25.8 106.833L25.8 104.925C25.8 104.469 25.888 104.067 26.064 103.719C26.236 103.367 26.48 103.095 26.796 102.903C27.112 102.707 27.48 102.609 27.9 102.609C28.32 102.609 28.688 102.707 29.004 102.903C29.32 103.095 29.566 103.367 29.742 103.719C29.914 104.067 30 104.469 30 104.925L30 106.833L25.8 106.833ZM29.202 104.973C29.202 104.553 29.086 104.219 28.854 103.971C28.618 103.719 28.3 103.593 27.9 103.593C27.5 103.593 27.184 103.719 26.952 103.971C26.716 104.219 26.598 104.553 26.598 104.973L26.598 105.861L29.202 105.861L29.202 104.973ZM29.1 99.1686L29.1 101.119L30 101.491L30 102.487L25.8 100.615L25.8 99.6546L30 97.7766L30 98.7966L29.1 99.1686ZM28.362 99.4746L26.754 100.141L28.362 100.807L28.362 99.4746ZM30 94.6649L28.83 95.4749L28.83 95.5229L28.83 96.3689L30 96.3689L30 97.3409L25.8 97.3409L25.8 95.5229C25.8 95.1509 25.862 94.8289 25.986 94.5569C26.11 94.2809 26.286 94.0689 26.514 93.9209C26.742 93.7729 27.012 93.6989 27.324 93.6989C27.636 93.6989 27.906 93.7749 28.134 93.9269C28.358 94.0749 28.53 94.2869 28.65 94.5629L30 93.6209L30 94.6649ZM27.324 94.6829C27.088 94.6829 26.908 94.7589 26.784 94.9109C26.656 95.0629 26.592 95.2849 26.592 95.5769L26.592 96.3689L28.056 96.3689L28.056 95.5769C28.056 95.2849 27.992 95.0629 27.864 94.9109C27.736 94.7589 27.556 94.6829 27.324 94.6829ZM29.22 89.6768L30 89.6768L30 92.9288L25.8 92.9288L25.8 89.7548L26.58 89.7548L26.58 91.9628L27.492 91.9628L27.492 90.0128L28.248 90.0128L28.248 91.9628L29.22 91.9628L29.22 89.6768ZM30.072 87.5234C30.072 87.8554 30.028 88.1774 29.94 88.4894C29.848 88.7974 29.73 89.0454 29.586 89.2334L28.854 88.9034C28.986 88.7234 29.092 88.5094 29.172 88.2614C29.252 88.0134 29.292 87.7654 29.292 87.5174C29.292 87.2414 29.252 87.0374 29.172 86.9054C29.088 86.7734 28.978 86.7074 28.842 86.7074C28.742 86.7074 28.66 86.7474 28.596 86.8274C28.528 86.9034 28.474 87.0034 28.434 87.1274C28.394 87.2474 28.35 87.4114 28.302 87.6194C28.226 87.9394 28.15 88.2014 28.074 88.4054C27.998 88.6094 27.876 88.7854 27.708 88.9334C27.54 89.0774 27.316 89.1494 27.036 89.1494C26.792 89.1494 26.572 89.0834 26.376 88.9514C26.176 88.8194 26.018 88.6214 25.902 88.3574C25.786 88.0894 25.728 87.7634 25.728 87.3794C25.728 87.1114 25.76 86.8494 25.824 86.5934C25.888 86.3374 25.98 86.1134 26.1 85.9214L26.838 86.2214C26.618 86.6094 26.508 86.9974 26.508 87.3854C26.508 87.6574 26.552 87.8594 26.64 87.9914C26.728 88.1194 26.844 88.1834 26.988 88.1834C27.132 88.1834 27.24 88.1094 27.312 87.9614C27.38 87.8094 27.448 87.5794 27.516 87.2714C27.592 86.9514 27.668 86.6894 27.744 86.4854C27.82 86.2814 27.94 86.1074 28.104 85.9634C28.268 85.8154 28.49 85.7414 28.77 85.7414C29.01 85.7414 29.23 85.8094 29.43 85.9454C29.626 86.0774 29.782 86.2774 29.898 86.5454C30.014 86.8134 30.072 87.1394 30.072 87.5234ZM25.8 77.03L30 78.404L30 79.448L27.156 80.372L30 81.326L30 82.364L25.8 83.744L25.8 82.736L28.752 81.788L25.8 80.798L25.8 79.898L28.776 78.938L25.8 77.96L25.8 77.03ZM25.8 76.4874L25.8 75.5154L30 75.5154L30 76.4874L25.8 76.4874ZM25.8 70.6666L30 70.6666L30 71.4646L27.45 73.5586L30 73.5586L30 74.5186L25.8 74.5186L25.8 73.7146L28.35 71.6266L25.8 71.6266L25.8 70.6666Z" fill="#FED04E"/>
</g>
<g filter="url(#filter5_i_914_1519)">
<path d="M154.2 77.0169L150 75.6429L150 74.5989L152.844 73.6749L150 72.7209L150 71.6829L154.2 70.3029L154.2 71.3109L151.248 72.2589L154.2 73.2489L154.2 74.1489L151.224 75.1089L154.2 76.0869L154.2 77.0169ZM154.2 81.4115L150 81.4115L150 80.4395L151.722 80.4395L151.722 78.5315L150 78.5315L150 77.5595L154.2 77.5595L154.2 78.5315L152.544 78.5315L152.544 80.4395L154.2 80.4395L154.2 81.4115ZM149.928 84.4392C149.928 84.0032 150.022 83.6092 150.21 83.2572C150.398 82.9092 150.656 82.6352 150.984 82.4352C151.316 82.2392 151.688 82.1412 152.1 82.1412C152.512 82.1412 152.882 82.2392 153.21 82.4352C153.542 82.6352 153.802 82.9092 153.99 83.2572C154.178 83.6092 154.272 84.0032 154.272 84.4392C154.272 84.8752 154.178 85.2672 153.99 85.6152C153.802 85.9632 153.542 86.2372 153.21 86.4372C152.882 86.6372 152.512 86.7372 152.1 86.7372C151.688 86.7372 151.316 86.6372 150.984 86.4372C150.656 86.2372 150.398 85.9632 150.21 85.6152C150.022 85.2672 149.928 84.8752 149.928 84.4392ZM150.756 84.4392C150.756 84.6872 150.812 84.9112 150.924 85.1112C151.04 85.3112 151.2 85.4672 151.404 85.5792C151.608 85.6952 151.84 85.7532 152.1 85.7532C152.36 85.7532 152.592 85.6952 152.796 85.5792C153 85.4672 153.158 85.3112 153.27 85.1112C153.386 84.9112 153.444 84.6872 153.444 84.4392C153.444 84.1912 153.386 83.9672 153.27 83.7672C153.158 83.5672 153 83.4092 152.796 83.2932C152.592 83.1812 152.36 83.1252 152.1 83.1252C151.84 83.1252 151.608 83.1812 151.404 83.2932C151.2 83.4092 151.04 83.5672 150.924 83.7672C150.812 83.9672 150.756 84.1912 150.756 84.4392ZM154.2 89.1669L154.2 91.0749C154.2 91.5309 154.112 91.9329 153.936 92.2809C153.764 92.6329 153.52 92.9049 153.204 93.0969C152.888 93.2929 152.52 93.3909 152.1 93.3909C151.68 93.3909 151.312 93.2929 150.996 93.0969C150.68 92.9049 150.434 92.6329 150.258 92.2809C150.086 91.9329 150 91.5309 150 91.0749L150 89.1669L154.2 89.1669ZM150.798 91.0269C150.798 91.4469 150.914 91.7809 151.146 92.0289C151.382 92.2809 151.7 92.4069 152.1 92.4069C152.5 92.4069 152.816 92.2809 153.048 92.0289C153.284 91.7809 153.402 91.4469 153.402 91.0269L153.402 90.1389L150.798 90.1389L150.798 91.0269ZM150.9 96.8314L150.9 94.8814L150 94.5094L150 93.5134L154.2 95.3854L154.2 96.3454L150 98.2234L150 97.2034L150.9 96.8314ZM151.638 96.5254L153.246 95.8594L151.638 95.1934L151.638 96.5254ZM150 101.335L151.17 100.525L151.17 100.477L151.17 99.6311L150 99.6311L150 98.6591L154.2 98.6591L154.2 100.477C154.2 100.849 154.138 101.171 154.014 101.443C153.89 101.719 153.714 101.931 153.486 102.079C153.258 102.227 152.988 102.301 152.676 102.301C152.364 102.301 152.094 102.225 151.866 102.073C151.642 101.925 151.47 101.713 151.35 101.437L150 102.379L150 101.335ZM152.676 101.317C152.912 101.317 153.092 101.241 153.216 101.089C153.344 100.937 153.408 100.715 153.408 100.423L153.408 99.6311L151.944 99.6311L151.944 100.423C151.944 100.715 152.008 100.937 152.136 101.089C152.264 101.241 152.444 101.317 152.676 101.317ZM150.78 106.323L150 106.323L150 103.071L154.2 103.071L154.2 106.245L153.42 106.245L153.42 104.037L152.508 104.037L152.508 105.987L151.752 105.987L151.752 104.037L150.78 104.037L150.78 106.323ZM149.928 108.477C149.928 108.145 149.972 107.823 150.06 107.511C150.152 107.203 150.27 106.955 150.414 106.767L151.146 107.097C151.014 107.277 150.908 107.491 150.828 107.739C150.748 107.987 150.708 108.235 150.708 108.483C150.708 108.759 150.748 108.963 150.828 109.095C150.912 109.227 151.022 109.293 151.158 109.293C151.258 109.293 151.34 109.253 151.404 109.173C151.472 109.097 151.526 108.997 151.566 108.873C151.606 108.753 151.65 108.589 151.698 108.381C151.774 108.061 151.85 107.799 151.926 107.595C152.002 107.391 152.124 107.215 152.292 107.067C152.46 106.923 152.684 106.851 152.964 106.851C153.208 106.851 153.428 106.917 153.624 107.049C153.824 107.181 153.982 107.379 154.098 107.643C154.214 107.911 154.272 108.237 154.272 108.621C154.272 108.889 154.24 109.151 154.176 109.407C154.112 109.663 154.02 109.887 153.9 110.079L153.162 109.779C153.382 109.391 153.492 109.003 153.492 108.615C153.492 108.343 153.448 108.141 153.36 108.009C153.272 107.881 153.156 107.817 153.012 107.817C152.868 107.817 152.76 107.891 152.688 108.039C152.62 108.191 152.552 108.421 152.484 108.729C152.408 109.049 152.332 109.311 152.256 109.515C152.18 109.719 152.06 109.893 151.896 110.037C151.732 110.185 151.51 110.259 151.23 110.259C150.99 110.259 150.77 110.191 150.57 110.055C150.374 109.923 150.218 109.723 150.102 109.455C149.986 109.187 149.928 108.861 149.928 108.477ZM154.2 118.97L150 117.596L150 116.552L152.844 115.628L150 114.674L150 113.636L154.2 112.256L154.2 113.264L151.248 114.212L154.2 115.202L154.2 116.102L151.224 117.062L154.2 118.04L154.2 118.97ZM154.2 119.513L154.2 120.485L150 120.485L150 119.513L154.2 119.513ZM154.2 125.333L150 125.333L150 124.535L152.55 122.441L150 122.441L150 121.481L154.2 121.481L154.2 122.285L151.65 124.373L154.2 124.373L154.2 125.333Z" fill="#FED04E"/>
</g>
<g filter="url(#filter6_i_914_1519)">
<path d="M62.195 77.7827C62.9194 76.2645 65.0806 76.2645 65.805 77.7827L66.9887 80.2633C67.2803 80.8743 67.8611 81.2964 68.5324 81.3848L71.2573 81.744C72.9251 81.9639 73.5929 84.0192 72.3729 85.1774L70.3795 87.0697C69.8885 87.5358 69.6666 88.2187 69.7899 88.8844L70.2903 91.5869C70.5966 93.2411 68.8482 94.5113 67.3697 93.7089L64.954 92.3978C64.359 92.0748 63.641 92.0748 63.046 92.3978L60.6303 93.7089C59.1518 94.5113 57.4034 93.2411 57.7097 91.5869L58.2101 88.8844C58.3334 88.2187 58.1115 87.5358 57.6205 87.0697L55.6271 85.1774C54.4071 84.0192 55.0749 81.9639 56.7427 81.744L59.4676 81.3848C60.1389 81.2964 60.7197 80.8743 61.0113 80.2633L62.195 77.7827Z" fill="#FFD14E"/>
</g>
<g filter="url(#filter7_i_914_1519)">
<path d="M88.195 105.783C88.9194 104.264 91.0806 104.264 91.805 105.783L92.9887 108.263C93.2803 108.874 93.8611 109.296 94.5324 109.385L97.2573 109.744C98.9251 109.964 99.5929 112.019 98.3729 113.177L96.3795 115.07C95.8885 115.536 95.6666 116.219 95.7899 116.884L96.2903 119.587C96.5966 121.241 94.8482 122.511 93.3697 121.709L90.954 120.398C90.359 120.075 89.641 120.075 89.046 120.398L86.6303 121.709C85.1518 122.511 83.4034 121.241 83.7097 119.587L84.2101 116.884C84.3334 116.219 84.1115 115.536 83.6205 115.07L81.6271 113.177C80.4071 112.019 81.0749 109.964 82.7427 109.744L85.4676 109.385C86.1389 109.296 86.7197 108.874 87.0113 108.263L88.195 105.783Z" fill="#FFD14E"/>
</g>
<g filter="url(#filter8_i_914_1519)">
<path d="M88.195 77.7827C88.9194 76.2645 91.0806 76.2645 91.805 77.7827L92.9887 80.2633C93.2803 80.8743 93.8611 81.2964 94.5324 81.3848L97.2573 81.744C98.9251 81.9639 99.5929 84.0192 98.3729 85.1774L96.3795 87.0697C95.8885 87.5358 95.6666 88.2187 95.7899 88.8844L96.2903 91.5869C96.5966 93.2411 94.8482 94.5113 93.3697 93.7089L90.954 92.3978C90.359 92.0748 89.641 92.0748 89.046 92.3978L86.6303 93.7089C85.1518 94.5113 83.4034 93.2411 83.7097 91.5869L84.2101 88.8844C84.3334 88.2187 84.1115 87.5358 83.6205 87.0697L81.6271 85.1774C80.4071 84.0192 81.0749 81.9639 82.7427 81.744L85.4676 81.3848C86.1389 81.2964 86.7197 80.8743 87.0113 80.2633L88.195 77.7827Z" fill="#FFD14E"/>
</g>
<g filter="url(#filter9_i_914_1519)">
<path d="M114.195 77.7827C114.919 76.2645 117.081 76.2645 117.805 77.7827L118.989 80.2633C119.28 80.8743 119.861 81.2964 120.532 81.3848L123.257 81.744C124.925 81.9639 125.593 84.0192 124.373 85.1774L122.379 87.0697C121.888 87.5358 121.667 88.2187 121.79 88.8844L122.29 91.5869C122.597 93.2411 120.848 94.5113 119.37 93.7089L116.954 92.3978C116.359 92.0748 115.641 92.0748 115.046 92.3978L112.63 93.7089C111.152 94.5113 109.403 93.2411 109.71 91.5869L110.21 88.8844C110.333 88.2187 110.112 87.5358 109.621 87.0697L107.627 85.1774C106.407 84.0192 107.075 81.9639 108.743 81.744L111.468 81.3848C112.139 81.2964 112.72 80.8743 113.011 80.2633L114.195 77.7827Z" fill="#FFD14E"/>
</g>
<g filter="url(#filter10_i_914_1519)">
<path d="M118.043 42.9269L118.812 43.3709L117.96 44.8466C117.677 44.8816 117.382 44.8639 117.076 44.7936C116.771 44.7232 116.486 44.6121 116.223 44.4601C115.845 44.2421 115.552 43.9664 115.342 43.6331C115.135 43.2962 115.027 42.9358 115.017 42.5517C115.014 42.1662 115.116 41.7933 115.324 41.4331C115.532 41.0728 115.803 40.7996 116.136 40.6136C116.476 40.4261 116.844 40.3406 117.24 40.3573C117.639 40.3705 118.029 40.4871 118.41 40.7071C118.729 40.8911 118.987 41.1118 119.185 41.3691C119.383 41.6265 119.511 41.9084 119.57 42.2148L118.741 42.4016C118.64 41.978 118.405 41.6601 118.038 41.4481C117.806 41.3141 117.572 41.2436 117.336 41.2366C117.099 41.2296 116.88 41.2854 116.678 41.4041C116.475 41.5228 116.308 41.6964 116.176 41.9251C116.046 42.1502 115.98 42.3802 115.979 42.6148C115.977 42.8495 116.036 43.0681 116.154 43.2705C116.278 43.4715 116.455 43.638 116.683 43.77C116.926 43.91 117.174 43.984 117.428 43.9921L118.043 42.9269ZM120.237 46.7775C119.859 46.5595 119.565 46.2811 119.354 45.9423C119.147 45.6055 119.038 45.2451 119.029 44.861C119.025 44.4755 119.127 44.1043 119.333 43.7475C119.539 43.3907 119.808 43.1193 120.142 42.9332C120.481 42.7457 120.849 42.6575 121.244 42.6687C121.643 42.6819 122.031 42.7975 122.409 43.0155C122.786 43.2335 123.079 43.5109 123.286 43.8477C123.493 44.1845 123.601 44.5467 123.608 44.9342C123.617 45.3183 123.519 45.6887 123.313 46.0455C123.107 46.4023 122.834 46.6745 122.495 46.862C122.158 47.0461 121.791 47.1325 121.396 47.1213C121.001 47.1101 120.614 46.9955 120.237 46.7775ZM120.651 46.0605C120.865 46.1845 121.087 46.248 121.317 46.251C121.548 46.2505 121.763 46.1899 121.962 46.0693C122.164 45.9506 122.331 45.7787 122.461 45.5535C122.591 45.3284 122.656 45.0984 122.658 44.8638C122.663 44.6311 122.607 44.4163 122.49 44.2193C122.374 44.0188 122.209 43.8566 121.995 43.7326C121.78 43.6086 121.557 43.5468 121.326 43.5473C121.096 43.5443 120.881 43.6021 120.678 43.7208C120.479 43.8414 120.315 44.0144 120.185 44.2395C120.055 44.4647 119.987 44.6936 119.982 44.9263C119.981 45.1609 120.037 45.3785 120.153 45.579C120.27 45.776 120.436 45.9365 120.651 46.0605ZM124.995 44.5921L125.837 45.0781L124.133 48.0295L125.957 49.0825L125.561 49.7684L122.895 48.2294L124.995 44.5921ZM128.131 46.4027L129.784 47.3567C130.179 47.5847 130.483 47.8619 130.696 48.1883C130.915 48.5133 131.029 48.8606 131.037 49.2302C131.049 49.6019 130.949 49.9696 130.739 50.3333C130.529 50.697 130.261 50.9667 129.933 51.1424C129.609 51.3201 129.25 51.3971 128.857 51.3735C128.47 51.3485 128.079 51.222 127.684 50.994L126.031 50.04L128.131 46.4027ZM128.041 50.2789C128.405 50.4889 128.752 50.5554 129.083 50.4785C129.419 50.4001 129.687 50.1877 129.887 49.8413C130.087 49.4949 130.136 49.1582 130.034 48.8313C129.937 48.5029 129.707 48.2338 129.343 48.0238L128.574 47.5798L127.272 49.8349L128.041 50.2789Z" fill="#FFD14E"/>
</g>
<g filter="url(#filter11_i_914_1519)">
<path d="M134.387 53.7665C134.131 53.6185 133.967 53.4134 133.897 53.1511C133.834 52.8928 133.876 52.6355 134.024 52.3792C134.168 52.1298 134.368 51.9679 134.623 51.8936C134.885 51.8234 135.145 51.8622 135.401 52.0102C135.657 52.1582 135.817 52.3614 135.88 52.6196C135.951 52.8819 135.914 53.1378 135.77 53.3872C135.622 53.6435 135.417 53.8068 135.154 53.8771C134.899 53.9514 134.643 53.9145 134.387 53.7665Z" fill="#C8A43D"/>
</g>
<g filter="url(#filter12_i_914_1519)">
<path d="M110.138 39.7665C109.882 39.6185 109.718 39.4134 109.648 39.1511C109.585 38.8928 109.627 38.6355 109.775 38.3792C109.919 38.1298 110.119 37.9679 110.374 37.8936C110.636 37.8234 110.896 37.8622 111.152 38.0102C111.408 38.1582 111.568 38.3614 111.632 38.6196C111.702 38.8819 111.665 39.1378 111.521 39.3872C111.373 39.6435 111.168 39.8068 110.906 39.8771C110.65 39.9514 110.394 39.9145 110.138 39.7665Z" fill="#C8A43D"/>
</g>
<g filter="url(#filter13_i_914_1519)">
<path d="M62.3306 153.591L61.5616 153.147L62.4136 151.671C62.697 151.636 62.9916 151.654 63.2975 151.724C63.6033 151.794 63.8878 151.906 64.1511 152.058C64.5287 152.276 64.8221 152.551 65.0315 152.885C65.2389 153.221 65.3472 153.582 65.3564 153.966C65.3601 154.351 65.258 154.724 65.05 155.085C64.842 155.445 64.5711 155.718 64.2374 155.904C63.8982 156.092 63.5302 156.177 63.1333 156.16C62.7345 156.147 62.3445 156.031 61.9635 155.811C61.6448 155.627 61.3865 155.406 61.1887 155.148C60.9909 154.891 60.8627 154.609 60.804 154.303L61.6324 154.116C61.7342 154.54 61.9687 154.857 62.3359 155.069C62.568 155.203 62.8021 155.274 63.0383 155.281C63.2744 155.288 63.4937 155.232 63.6961 155.113C63.8986 154.995 64.0658 154.821 64.1978 154.593C64.3278 154.367 64.3936 154.137 64.3951 153.903C64.3967 153.668 64.3381 153.45 64.2195 153.247C64.0953 153.046 63.9189 152.88 63.6903 152.748C63.4478 152.608 63.1996 152.534 62.9456 152.525L62.3306 153.591ZM60.1371 149.74C60.5147 149.958 60.8089 150.236 61.0198 150.575C61.2271 150.912 61.3354 151.273 61.3446 151.657C61.3484 152.042 61.2473 152.413 61.0413 152.77C60.8353 153.127 60.5654 153.398 60.2316 153.584C59.8924 153.772 59.5251 153.86 59.1298 153.849C58.7309 153.836 58.3427 153.72 57.9651 153.502C57.5875 153.284 57.2951 153.007 57.0877 152.67C56.8803 152.333 56.773 151.971 56.7658 151.583C56.7566 151.199 56.855 150.829 57.061 150.472C57.267 150.115 57.5396 149.843 57.8788 149.656C58.216 149.472 58.5823 149.385 58.9777 149.396C59.3731 149.407 59.7595 149.522 60.1371 149.74ZM59.7231 150.457C59.5084 150.333 59.2864 150.27 59.0572 150.267C58.826 150.267 58.6109 150.328 58.4119 150.448C58.2094 150.567 58.0432 150.739 57.9132 150.964C57.7832 151.189 57.7174 151.419 57.7159 151.654C57.7109 151.886 57.767 152.101 57.8842 152.298C57.9994 152.499 58.1644 152.661 58.3791 152.785C58.5939 152.909 58.8169 152.971 59.0481 152.97C59.2773 152.973 59.4931 152.915 59.6956 152.797C59.8946 152.676 60.0591 152.503 60.1891 152.278C60.3191 152.053 60.3866 151.824 60.3916 151.591C60.3931 151.357 60.3363 151.139 60.2211 150.939C60.1039 150.742 59.9379 150.581 59.7231 150.457ZM55.3784 151.925L54.5366 151.439L56.2406 148.488L54.4167 147.435L54.8127 146.749L57.4784 148.288L55.3784 151.925ZM52.2424 150.115L50.59 149.161C50.1951 148.933 49.891 148.656 49.6776 148.329C49.4588 148.004 49.3452 147.657 49.3369 147.287C49.3252 146.916 49.4243 146.548 49.6343 146.184C49.8443 145.821 50.1132 145.551 50.4409 145.375C50.7652 145.198 51.1238 145.12 51.5166 145.144C51.904 145.169 52.2951 145.296 52.69 145.524L54.3424 146.478L52.2424 150.115ZM52.3326 146.239C51.9689 146.029 51.6216 145.962 51.2908 146.039C50.9546 146.117 50.6865 146.33 50.4865 146.676C50.2865 147.023 50.2376 147.359 50.3398 147.686C50.4366 148.015 50.6669 148.284 51.0306 148.494L51.7996 148.938L53.1016 146.683L52.3326 146.239Z" fill="#FFD14E"/>
</g>
<g filter="url(#filter14_i_914_1519)">
<path d="M45.9869 142.751C46.2433 142.899 46.4066 143.104 46.4769 143.366C46.5402 143.625 46.4979 143.882 46.3499 144.138C46.2059 144.388 46.0062 144.55 45.7509 144.624C45.4886 144.694 45.2293 144.655 44.9729 144.507C44.7166 144.359 44.5567 144.156 44.4934 143.898C44.4231 143.636 44.46 143.38 44.604 143.13C44.752 142.874 44.9571 142.711 45.2194 142.64C45.4747 142.566 45.7306 142.603 45.9869 142.751Z" fill="#C8A43D"/>
</g>
<g filter="url(#filter15_i_914_1519)">
<path d="M70.2356 156.751C70.492 156.899 70.6553 157.104 70.7256 157.366C70.7889 157.625 70.7466 157.882 70.5986 158.138C70.4546 158.388 70.2549 158.55 69.9996 158.624C69.7373 158.694 69.478 158.655 69.2216 158.507C68.9653 158.359 68.8055 158.156 68.7421 157.898C68.6718 157.636 68.7087 157.38 68.8527 157.13C69.0007 156.874 69.2058 156.711 69.4681 156.64C69.7235 156.566 69.9793 156.603 70.2356 156.751Z" fill="#C8A43D"/>
</g>
</g>
<defs>
<filter id="filter0_d_914_1519" x="0.450012" y="0.475208" width="183.1" height="199.05" filterUnits="userSpaceOnUse" color-interpolation-filters="sRGB">
<feFlood flood-opacity="0" result="BackgroundImageFix"/>
<feColorMatrix in="SourceAlpha" type="matrix" values="0 0 0 0 0 0 0 0 0 0 0 0 0 0 0 0 0 0 127 0" result="hardAlpha"/>
<feOffset dx="2" dy="2"/>
<feGaussianBlur stdDeviation="12"/>
<feComposite in2="hardAlpha" operator="out"/>
<feColorMatrix type="matrix" values="0 0 0 0 0 0 0 0 0 0 0 0 0 0 0 0 0 0 0.25 0"/>
<feBlend mode="normal" in2="BackgroundImageFix" result="effect1_dropShadow_914_1519"/>
<feBlend mode="normal" in="SourceGraphic" in2="effect1_dropShadow_914_1519" result="shape"/>
</filter>
<filter id="filter1_d_914_1519" x="18.45" y="22.4752" width="143.1" height="159.05" filterUnits="userSpaceOnUse" color-interpolation-filters="sRGB">
<feFlood flood-opacity="0" result="BackgroundImageFix"/>
<feColorMatrix in="SourceAlpha" type="matrix" values="0 0 0 0 0 0 0 0 0 0 0 0 0 0 0 0 0 0 127 0" result="hardAlpha"/>
<feOffset dy="4"/>
<feGaussianBlur stdDeviation="2"/>
<feComposite in2="hardAlpha" operator="out"/>
<feColorMatrix type="matrix" values="0 0 0 0 0 0 0 0 0 0 0 0 0 0 0 0 0 0 0.25 0"/>
<feBlend mode="normal" in2="BackgroundImageFix" result="effect1_dropShadow_914_1519"/>
<feBlend mode="normal" in="SourceGraphic" in2="effect1_dropShadow_914_1519" result="shape"/>
</filter>
<filter id="filter2_i_914_1519" x="32.3423" y="34.9056" width="115.315" height="130.189" filterUnits="userSpaceOnUse" color-interpolation-filters="sRGB">
<feFlood flood-opacity="0" result="BackgroundImageFix"/>
<feBlend mode="normal" in="SourceGraphic" in2="BackgroundImageFix" result="shape"/>
<feColorMatrix in="SourceAlpha" type="matrix" values="0 0 0 0 0 0 0 0 0 0 0 0 0 0 0 0 0 0 127 0" result="hardAlpha"/>
<feOffset dy="4"/>
<feGaussianBlur stdDeviation="2"/>
<feComposite in2="hardAlpha" operator="arithmetic" k2="-1" k3="1"/>
<feColorMatrix type="matrix" values="0 0 0 0 0 0 0 0 0 0 0 0 0 0 0 0 0 0 0.25 0"/>
<feBlend mode="normal" in2="shape" result="effect1_innerShadow_914_1519"/>
</filter>
<filter id="filter3_d_914_1519" x="39.6677" y="46.9752" width="101.665" height="111.05" filterUnits="userSpaceOnUse" color-interpolation-filters="sRGB">
<feFlood flood-opacity="0" result="BackgroundImageFix"/>
<feColorMatrix in="SourceAlpha" type="matrix" values="0 0 0 0 0 0 0 0 0 0 0 0 0 0 0 0 0 0 127 0" result="hardAlpha"/>
<feOffset dy="4"/>
<feGaussianBlur stdDeviation="2"/>
<feComposite in2="hardAlpha" operator="out"/>
<feColorMatrix type="matrix" values="0 0 0 0 0 0 0 0 0 0 0 0 0 0 0 0 0 0 0.25 0"/>
<feBlend mode="normal" in2="BackgroundImageFix" result="effect1_dropShadow_914_1519"/>
<feBlend mode="normal" in="SourceGraphic" in2="effect1_dropShadow_914_1519" result="shape"/>
</filter>
<filter id="filter4_i_914_1519" x="25.728" y="70.6666" width="4.34399" height="59.0305" filterUnits="userSpaceOnUse" color-interpolation-filters="sRGB">
<feFlood flood-opacity="0" result="BackgroundImageFix"/>
<feBlend mode="normal" in="SourceGraphic" in2="BackgroundImageFix" result="shape"/>
<feColorMatrix in="SourceAlpha" type="matrix" values="0 0 0 0 0 0 0 0 0 0 0 0 0 0 0 0 0 0 127 0" result="hardAlpha"/>
<feOffset dy="4"/>
<feGaussianBlur stdDeviation="2"/>
<feComposite in2="hardAlpha" operator="arithmetic" k2="-1" k3="1"/>
<feColorMatrix type="matrix" values="0 0 0 0 0 0 0 0 0 0 0 0 0 0 0 0 0 0 0.25 0"/>
<feBlend mode="normal" in2="shape" result="effect1_innerShadow_914_1519"/>
</filter>
<filter id="filter5_i_914_1519" x="149.928" y="70.3029" width="4.34399" height="59.0305" filterUnits="userSpaceOnUse" color-interpolation-filters="sRGB">
<feFlood flood-opacity="0" result="BackgroundImageFix"/>
<feBlend mode="normal" in="SourceGraphic" in2="BackgroundImageFix" result="shape"/>
<feColorMatrix in="SourceAlpha" type="matrix" values="0 0 0 0 0 0 0 0 0 0 0 0 0 0 0 0 0 0 127 0" result="hardAlpha"/>
<feOffset dy="4"/>
<feGaussianBlur stdDeviation="2"/>
<feComposite in2="hardAlpha" operator="arithmetic" k2="-1" k3="1"/>
<feColorMatrix type="matrix" values="0 0 0 0 0 0 0 0 0 0 0 0 0 0 0 0 0 0 0.25 0"/>
<feBlend mode="normal" in2="shape" result="effect1_innerShadow_914_1519"/>
</filter>
<filter id="filter6_i_914_1519" x="55.0018" y="76.6441" width="17.9965" height="21.3118" filterUnits="userSpaceOnUse" color-interpolation-filters="sRGB">
<feFlood flood-opacity="0" result="BackgroundImageFix"/>
<feBlend mode="normal" in="SourceGraphic" in2="BackgroundImageFix" result="shape"/>
<feColorMatrix in="SourceAlpha" type="matrix" values="0 0 0 0 0 0 0 0 0 0 0 0 0 0 0 0 0 0 127 0" result="hardAlpha"/>
<feOffset dy="4"/>
<feGaussianBlur stdDeviation="2"/>
<feComposite in2="hardAlpha" operator="arithmetic" k2="-1" k3="1"/>
<feColorMatrix type="matrix" values="0 0 0 0 0 0 0 0 0 0 0 0 0 0 0 0 0 0 0.25 0"/>
<feBlend mode="normal" in2="shape" result="effect1_innerShadow_914_1519"/>
</filter>
<filter id="filter7_i_914_1519" x="81.0018" y="104.644" width="17.9965" height="21.3118" filterUnits="userSpaceOnUse" color-interpolation-filters="sRGB">
<feFlood flood-opacity="0" result="BackgroundImageFix"/>
<feBlend mode="normal" in="SourceGraphic" in2="BackgroundImageFix" result="shape"/>
<feColorMatrix in="SourceAlpha" type="matrix" values="0 0 0 0 0 0 0 0 0 0 0 0 0 0 0 0 0 0 127 0" result="hardAlpha"/>
<feOffset dy="4"/>
<feGaussianBlur stdDeviation="2"/>
<feComposite in2="hardAlpha" operator="arithmetic" k2="-1" k3="1"/>
<feColorMatrix type="matrix" values="0 0 0 0 0 0 0 0 0 0 0 0 0 0 0 0 0 0 0.25 0"/>
<feBlend mode="normal" in2="shape" result="effect1_innerShadow_914_1519"/>
</filter>
<filter id="filter8_i_914_1519" x="81.0018" y="76.6441" width="17.9965" height="21.3118" filterUnits="userSpaceOnUse" color-interpolation-filters="sRGB">
<feFlood flood-opacity="0" result="BackgroundImageFix"/>
<feBlend mode="normal" in="SourceGraphic" in2="BackgroundImageFix" result="shape"/>
<feColorMatrix in="SourceAlpha" type="matrix" values="0 0 0 0 0 0 0 0 0 0 0 0 0 0 0 0 0 0 127 0" result="hardAlpha"/>
<feOffset dy="4"/>
<feGaussianBlur stdDeviation="2"/>
<feComposite in2="hardAlpha" operator="arithmetic" k2="-1" k3="1"/>
<feColorMatrix type="matrix" values="0 0 0 0 0 0 0 0 0 0 0 0 0 0 0 0 0 0 0.25 0"/>
<feBlend mode="normal" in2="shape" result="effect1_innerShadow_914_1519"/>
</filter>
<filter id="filter9_i_914_1519" x="107.002" y="76.6441" width="17.9965" height="21.3118" filterUnits="userSpaceOnUse" color-interpolation-filters="sRGB">
<feFlood flood-opacity="0" result="BackgroundImageFix"/>
<feBlend mode="normal" in="SourceGraphic" in2="BackgroundImageFix" result="shape"/>
<feColorMatrix in="SourceAlpha" type="matrix" values="0 0 0 0 0 0 0 0 0 0 0 0 0 0 0 0 0 0 127 0" result="hardAlpha"/>
<feOffset dy="4"/>
<feGaussianBlur stdDeviation="2"/>
<feComposite in2="hardAlpha" operator="arithmetic" k2="-1" k3="1"/>
<feColorMatrix type="matrix" values="0 0 0 0 0 0 0 0 0 0 0 0 0 0 0 0 0 0 0.25 0"/>
<feBlend mode="normal" in2="shape" result="effect1_innerShadow_914_1519"/>
</filter>
<filter id="filter10_i_914_1519" x="114.238" y="39.5521" width="17.5877" height="16.6623" filterUnits="userSpaceOnUse" color-interpolation-filters="sRGB">
<feFlood flood-opacity="0" result="BackgroundImageFix"/>
<feBlend mode="normal" in="SourceGraphic" in2="BackgroundImageFix" result="shape"/>
<feColorMatrix in="SourceAlpha" type="matrix" values="0 0 0 0 0 0 0 0 0 0 0 0 0 0 0 0 0 0 127 0" result="hardAlpha"/>
<feOffset dy="4"/>
<feGaussianBlur stdDeviation="2"/>
<feComposite in2="hardAlpha" operator="arithmetic" k2="-1" k3="1"/>
<feColorMatrix type="matrix" values="0 0 0 0 0 0 0 0 0 0 0 0 0 0 0 0 0 0 0.25 0"/>
<feBlend mode="normal" in2="shape" result="effect1_innerShadow_914_1519"/>
</filter>
<filter id="filter11_i_914_1519" x="133.514" y="51.5062" width="2.75992" height="6.7643" filterUnits="userSpaceOnUse" color-interpolation-filters="sRGB">
<feFlood flood-opacity="0" result="BackgroundImageFix"/>
<feBlend mode="normal" in="SourceGraphic" in2="BackgroundImageFix" result="shape"/>
<feColorMatrix in="SourceAlpha" type="matrix" values="0 0 0 0 0 0 0 0 0 0 0 0 0 0 0 0 0 0 127 0" result="hardAlpha"/>
<feOffset dy="4"/>
<feGaussianBlur stdDeviation="2"/>
<feComposite in2="hardAlpha" operator="arithmetic" k2="-1" k3="1"/>
<feColorMatrix type="matrix" values="0 0 0 0 0 0 0 0 0 0 0 0 0 0 0 0 0 0 0.25 0"/>
<feBlend mode="normal" in2="shape" result="effect1_innerShadow_914_1519"/>
</filter>
<filter id="filter12_i_914_1519" x="109.265" y="37.5062" width="2.75989" height="6.7643" filterUnits="userSpaceOnUse" color-interpolation-filters="sRGB">
<feFlood flood-opacity="0" result="BackgroundImageFix"/>
<feBlend mode="normal" in="SourceGraphic" in2="BackgroundImageFix" result="shape"/>
<feColorMatrix in="SourceAlpha" type="matrix" values="0 0 0 0 0 0 0 0 0 0 0 0 0 0 0 0 0 0 127 0" result="hardAlpha"/>
<feOffset dy="4"/>
<feGaussianBlur stdDeviation="2"/>
<feComposite in2="hardAlpha" operator="arithmetic" k2="-1" k3="1"/>
<feColorMatrix type="matrix" values="0 0 0 0 0 0 0 0 0 0 0 0 0 0 0 0 0 0 0.25 0"/>
<feBlend mode="normal" in2="shape" result="effect1_innerShadow_914_1519"/>
</filter>
<filter id="filter13_i_914_1519" x="48.5483" y="144.303" width="17.5876" height="16.6623" filterUnits="userSpaceOnUse" color-interpolation-filters="sRGB">
<feFlood flood-opacity="0" result="BackgroundImageFix"/>
<feBlend mode="normal" in="SourceGraphic" in2="BackgroundImageFix" result="shape"/>
<feColorMatrix in="SourceAlpha" type="matrix" values="0 0 0 0 0 0 0 0 0 0 0 0 0 0 0 0 0 0 127 0" result="hardAlpha"/>
<feOffset dy="4"/>
<feGaussianBlur stdDeviation="2"/>
<feComposite in2="hardAlpha" operator="arithmetic" k2="-1" k3="1"/>
<feColorMatrix type="matrix" values="0 0 0 0 0 0 0 0 0 0 0 0 0 0 0 0 0 0 0.25 0"/>
<feBlend mode="normal" in2="shape" result="effect1_innerShadow_914_1519"/>
</filter>
<filter id="filter14_i_914_1519" x="44.1" y="142.247" width="2.75989" height="6.7643" filterUnits="userSpaceOnUse" color-interpolation-filters="sRGB">
<feFlood flood-opacity="0" result="BackgroundImageFix"/>
<feBlend mode="normal" in="SourceGraphic" in2="BackgroundImageFix" result="shape"/>
<feColorMatrix in="SourceAlpha" type="matrix" values="0 0 0 0 0 0 0 0 0 0 0 0 0 0 0 0 0 0 127 0" result="hardAlpha"/>
<feOffset dy="4"/>
<feGaussianBlur stdDeviation="2"/>
<feComposite in2="hardAlpha" operator="arithmetic" k2="-1" k3="1"/>
<feColorMatrix type="matrix" values="0 0 0 0 0 0 0 0 0 0 0 0 0 0 0 0 0 0 0.25 0"/>
<feBlend mode="normal" in2="shape" result="effect1_innerShadow_914_1519"/>
</filter>
<filter id="filter15_i_914_1519" x="68.3487" y="156.247" width="2.75989" height="6.7643" filterUnits="userSpaceOnUse" color-interpolation-filters="sRGB">
<feFlood flood-opacity="0" result="BackgroundImageFix"/>
<feBlend mode="normal" in="SourceGraphic" in2="BackgroundImageFix" result="shape"/>
<feColorMatrix in="SourceAlpha" type="matrix" values="0 0 0 0 0 0 0 0 0 0 0 0 0 0 0 0 0 0 127 0" result="hardAlpha"/>
<feOffset dy="4"/>
<feGaussianBlur stdDeviation="2"/>
<feComposite in2="hardAlpha" operator="arithmetic" k2="-1" k3="1"/>
<feColorMatrix type="matrix" values="0 0 0 0 0 0 0 0 0 0 0 0 0 0 0 0 0 0 0.25 0"/>
<feBlend mode="normal" in2="shape" result="effect1_innerShadow_914_1519"/>
</filter>
</defs>
</svg>
