<svg width="178" height="99" viewBox="0 0 178 99" fill="none" xmlns="http://www.w3.org/2000/svg">
<path d="M16 83C16 83 29.0102 30.5018 48.7477 46.8519C52.2413 49.7459 50.9586 49.3582 54.8879 51.6261C65.5941 57.8057 58.8115 30.1063 70.5794 33.8931C76.3293 35.7433 81.0857 54.2864 91.729 42.7596C99.9159 33.8931 101.963 11.3857 111.514 16.8421C115.934 19.3668 114.749 25.8931 119.701 27.0727C122.034 27.6283 125.279 24.2812 127.206 25.7086C128.836 26.9165 127.739 29.1312 129.252 30.4829C132.541 33.4207 135.469 23.8885 139.486 25.7086C141.723 26.7223 142.152 32.4811 143.579 30.4829C150.402 20.9343 162 18.2061 162 18.2061" stroke="#FF2DA0" stroke-width="2"/>
<g filter="url(#filter0_f_59_1246)">
<path d="M48.7477 46.8519C29.0102 30.5018 16 83 16 83H162V18.2061C162 18.2061 150.402 20.9343 143.579 30.4829C142.152 32.4811 141.723 26.7223 139.486 25.7086C135.469 23.8885 132.541 33.4207 129.252 30.4829C127.739 29.1312 128.836 26.9165 127.206 25.7086C125.279 24.2812 122.034 27.6283 119.701 27.0727C114.749 25.8931 115.934 19.3668 111.514 16.8421C101.963 11.3857 99.9159 33.8931 91.729 42.7596C81.0857 54.2864 76.3293 35.7433 70.5794 33.8931C58.8115 30.1063 65.5941 57.8057 54.8879 51.6261C50.9586 49.3582 52.2413 49.7459 48.7477 46.8519Z" fill="#FF2DA0" fill-opacity="0.3"/>
</g>
<defs>
<filter id="filter0_f_59_1246" x="0" y="0" width="178" height="99" filterUnits="userSpaceOnUse" color-interpolation-filters="sRGB">
<feFlood flood-opacity="0" result="BackgroundImageFix"/>
<feBlend mode="normal" in="SourceGraphic" in2="BackgroundImageFix" result="shape"/>
<feGaussianBlur stdDeviation="8" result="effect1_foregroundBlur_59_1246"/>
</filter>
</defs>
</svg>
