<svg width="28" height="28" viewBox="0 0 28 28" fill="none" xmlns="http://www.w3.org/2000/svg">
<path fill-rule="evenodd" clip-rule="evenodd" d="M14 28C21.732 28 28 21.732 28 14C28 6.26801 21.732 0 14 0C6.26801 0 0 6.26801 0 14C0 21.732 6.26801 28 14 28ZM11.7873 19.4303C11.9288 19.4887 12.0805 19.5187 12.2337 19.5183C12.3868 19.5187 12.5385 19.4887 12.6801 19.4303C12.8216 19.3718 12.9502 19.286 13.0585 19.1777L21.3092 10.927C21.5279 10.7081 21.6508 10.4112 21.6507 10.1018C21.6505 9.79228 21.5275 9.49552 21.3086 9.27676C21.0897 9.058 20.7928 8.93516 20.4833 8.93527C20.1739 8.93538 19.8771 9.05843 19.6583 9.27734L12.2325 16.7008L8.10834 12.5767C8.00064 12.4653 7.87184 12.3765 7.72946 12.3155C7.58708 12.2545 7.43397 12.2224 7.27906 12.2211C7.12415 12.2199 6.97055 12.2495 6.82721 12.3083C6.68388 12.3671 6.55368 12.4538 6.44421 12.5634C6.33475 12.673 6.24822 12.8033 6.18966 12.9468C6.1311 13.0902 6.10169 13.2438 6.10314 13.3987C6.10459 13.5536 6.13688 13.7067 6.19813 13.849C6.25937 13.9913 6.34834 14.12 6.45984 14.2275L11.4088 19.1777C11.5171 19.286 11.6457 19.3718 11.7873 19.4303Z" fill="black"/>
</svg>
