<svg width="184" height="200" viewBox="0 0 184 200" fill="none" xmlns="http://www.w3.org/2000/svg">
<g filter="url(#filter0_d_914_1581)">
<g filter="url(#filter1_d_914_1581)">
<path d="M82 24.6188C86.9504 21.7607 93.0496 21.7607 98 24.6188L149.55 54.3812C154.5 57.2393 157.55 62.5214 157.55 68.2376V127.762C157.55 133.479 154.5 138.761 149.55 141.619L98 171.381C93.0496 174.239 86.9504 174.239 82 171.381L30.45 141.619C25.4996 138.761 22.45 133.479 22.45 127.762V68.2376C22.45 62.5214 25.4996 57.2393 30.45 54.3812L82 24.6188Z" fill="#CD7F32"/>
</g>
<g filter="url(#filter2_i_914_1581)">
<path d="M82.0914 37.4968C86.9952 34.7086 93.0048 34.7086 97.9086 37.4968L139.066 60.8992C144.068 63.7433 147.158 69.0541 147.158 74.808V121.192C147.158 126.946 144.068 132.257 139.066 135.101L97.9086 158.503C93.0048 161.291 86.9952 161.291 82.0914 158.503L40.9337 135.101C35.9319 132.257 32.8423 126.946 32.8423 121.192V74.808C32.8423 69.0541 35.9319 63.7433 40.9337 60.8992L82.0914 37.4968Z" fill="#DF9041"/>
</g>
<path d="M82.0914 37.4968C86.9952 34.7086 93.0048 34.7086 97.9086 37.4968L139.066 60.8992C144.068 63.7433 147.158 69.0541 147.158 74.808V121.192C147.158 126.946 144.068 132.257 139.066 135.101L97.9086 158.503C93.0048 161.291 86.9952 161.291 82.0914 158.503L40.9337 135.101C35.9319 132.257 32.8423 126.946 32.8423 121.192V74.808C32.8423 69.0541 35.9319 63.7433 40.9337 60.8992L82.0914 37.4968Z" stroke="#D28335"/>
<g filter="url(#filter3_d_914_1581)">
<path d="M82.5 49.6188C87.4504 46.7607 93.5496 46.7607 98.5 49.6188L128.832 67.1312C133.783 69.9893 136.832 75.2714 136.832 80.9876V116.012C136.832 121.729 133.783 127.011 128.832 129.869L98.5 147.381C93.5496 150.239 87.4504 150.239 82.5 147.381L52.1676 129.869C47.2172 127.011 44.1676 121.729 44.1676 116.012V80.9876C44.1676 75.2714 47.2172 69.9893 52.1676 67.1312L82.5 49.6188Z" fill="#CD7F32"/>
<path d="M82.5 49.6188C87.4504 46.7607 93.5496 46.7607 98.5 49.6188L128.832 67.1312C133.783 69.9893 136.832 75.2714 136.832 80.9876V116.012C136.832 121.729 133.783 127.011 128.832 129.869L98.5 147.381C93.5496 150.239 87.4504 150.239 82.5 147.381L52.1676 129.869C47.2172 127.011 44.1676 121.729 44.1676 116.012V80.9876C44.1676 75.2714 47.2172 69.9893 52.1676 67.1312L82.5 49.6188Z" stroke="#D1863C"/>
</g>
<g filter="url(#filter4_i_914_1581)">
<path d="M30 105.326L27.48 105.332L29.556 106.568L29.556 107.006L27.534 108.236L30 108.236L30 109.148L25.8 109.148L25.8 108.344L28.41 106.772L25.8 105.224L25.8 104.426L30 104.414L30 105.326ZM29.22 100.166L30 100.166L30 103.418L25.8 103.418L25.8 100.244L26.58 100.244L26.58 102.452L27.492 102.452L27.492 100.502L28.248 100.502L28.248 102.452L29.22 102.452L29.22 100.166ZM25.8 95.5406L30 95.5406L30 96.5126L28.278 96.5126L28.278 98.4206L30 98.4206L30 99.3926L25.8 99.3926L25.8 98.4206L27.456 98.4206L27.456 96.5126L25.8 96.5126L25.8 95.5406ZM25.8 90.6949L30 90.6949L30 91.6669L28.278 91.6669L28.278 93.5749L30 93.5749L30 94.5469L25.8 94.5469L25.8 93.5749L27.456 93.5749L27.456 91.6669L25.8 91.6669L25.8 90.6949ZM25.8 85.8492L30 85.8492L30 86.8212L28.278 86.8212L28.278 88.7292L30 88.7292L30 89.7012L25.8 89.7012L25.8 88.7292L27.456 88.7292L27.456 86.8212L25.8 86.8212L25.8 85.8492Z" fill="#B77B3F"/>
</g>
<g filter="url(#filter5_i_914_1581)">
<path d="M150 90.6735L152.52 90.6675L150.444 89.4315L150.444 88.9935L152.466 87.7635L150 87.7635L150 86.8515L154.2 86.8515L154.2 87.6555L151.59 89.2275L154.2 90.7755L154.2 91.5735L150 91.5855L150 90.6735ZM150.78 95.834L150 95.834L150 92.582L154.2 92.582L154.2 95.756L153.42 95.756L153.42 93.548L152.508 93.548L152.508 95.498L151.752 95.498L151.752 93.548L150.78 93.548L150.78 95.834ZM154.2 100.459L150 100.459L150 99.4874L151.722 99.4874L151.722 97.5794L150 97.5794L150 96.6074L154.2 96.6074L154.2 97.5794L152.544 97.5794L152.544 99.4874L154.2 99.4874L154.2 100.459ZM154.2 105.305L150 105.305L150 104.333L151.722 104.333L151.722 102.425L150 102.425L150 101.453L154.2 101.453L154.2 102.425L152.544 102.425L152.544 104.333L154.2 104.333L154.2 105.305ZM154.2 110.151L150 110.151L150 109.179L151.722 109.179L151.722 107.271L150 107.271L150 106.299L154.2 106.299L154.2 107.271L152.544 107.271L152.544 109.179L154.2 109.179L154.2 110.151Z" fill="#B77B3F"/>
</g>
<g filter="url(#filter6_i_914_1581)">
<path d="M71.195 85.7827C71.9194 84.2645 74.0806 84.2645 74.805 85.7827L77.1408 90.6776C77.4323 91.2887 78.0132 91.7107 78.6844 91.7992L84.0615 92.508C85.7293 92.7278 86.3972 94.7832 85.1771 95.9413L81.2435 99.6754C80.7525 100.141 80.5307 100.824 80.6539 101.49L81.6414 106.823C81.9477 108.477 80.1993 109.747 78.7208 108.945L73.954 106.358C73.359 106.035 72.641 106.035 72.046 106.358L67.2792 108.945C65.8007 109.747 64.0523 108.477 64.3586 106.823L65.3461 101.49C65.4693 100.824 65.2475 100.141 64.7565 99.6754L60.8229 95.9413C59.6028 94.7832 60.2707 92.7278 61.9385 92.508L67.3156 91.7992C67.9868 91.7107 68.5677 91.2887 68.8592 90.6776L71.195 85.7827Z" fill="#DF9041"/>
</g>
<g filter="url(#filter7_i_914_1581)">
<path d="M107.195 85.7827C107.919 84.2645 110.081 84.2645 110.805 85.7827L113.141 90.6776C113.432 91.2887 114.013 91.7107 114.684 91.7992L120.062 92.508C121.729 92.7278 122.397 94.7832 121.177 95.9413L117.244 99.6754C116.753 100.141 116.531 100.824 116.654 101.49L117.641 106.823C117.948 108.477 116.199 109.747 114.721 108.945L109.954 106.358C109.359 106.035 108.641 106.035 108.046 106.358L103.279 108.945C101.801 109.747 100.052 108.477 100.359 106.823L101.346 101.49C101.469 100.824 101.247 100.141 100.756 99.6754L96.8229 95.9413C95.6028 94.7832 96.2707 92.7278 97.9385 92.508L103.316 91.7992C103.987 91.7107 104.568 91.2887 104.859 90.6776L107.195 85.7827Z" fill="#DF9041"/>
</g>
<g filter="url(#filter8_i_914_1581)">
<path d="M114.503 40.862C114.672 41.0478 114.771 41.2526 114.799 41.4765C114.829 41.6969 114.779 41.9197 114.649 42.1449C114.465 42.4636 114.198 42.6375 113.849 42.6667C113.505 42.6945 113.095 42.5714 112.621 42.2974L110.74 41.2114L112.84 37.5741L114.617 38.6001C115.06 38.8561 115.351 39.1369 115.488 39.4427C115.629 39.7504 115.616 40.0498 115.448 40.3408C115.346 40.5174 115.212 40.65 115.045 40.7386C114.882 40.8292 114.701 40.8703 114.503 40.862ZM113.31 38.691L112.815 39.5483L113.652 40.0313C113.86 40.1513 114.038 40.206 114.188 40.1952C114.337 40.1845 114.453 40.1081 114.535 39.9661C114.617 39.824 114.624 39.6874 114.557 39.5561C114.491 39.4214 114.355 39.294 114.147 39.174L113.31 38.691ZM112.924 41.6274C113.146 41.7554 113.333 41.8151 113.486 41.8063C113.643 41.7996 113.765 41.72 113.853 41.5676C114.027 41.2662 113.89 40.9865 113.443 40.7285L112.461 40.1615L111.942 41.0604L112.924 41.6274ZM117.03 44.8433L116.914 43.4251L116.872 43.4011L116.14 42.9781L115.555 43.9913L114.713 43.5053L116.813 39.868L118.387 40.777C118.71 40.963 118.957 41.1777 119.131 41.4211C119.308 41.6665 119.404 41.9249 119.418 42.1963C119.432 42.4678 119.361 42.7386 119.205 43.0088C119.049 43.279 118.848 43.4748 118.603 43.5963C118.362 43.7163 118.093 43.7592 117.794 43.7252L117.935 45.3653L117.03 44.8433ZM118.353 42.5168C118.471 42.3124 118.495 42.1186 118.425 41.9352C118.358 41.7483 118.198 41.5819 117.945 41.4359L117.259 41.0399L116.527 42.3078L117.213 42.7038C117.466 42.8498 117.69 42.9053 117.885 42.8705C118.081 42.8356 118.237 42.7177 118.353 42.5168ZM120.259 46.7907C119.882 46.5727 119.588 46.2943 119.377 45.9555C119.169 45.6187 119.061 45.2582 119.052 44.8742C119.048 44.4887 119.149 44.1175 119.355 43.7607C119.561 43.4039 119.831 43.1325 120.165 42.9464C120.504 42.7589 120.871 42.6707 121.267 42.6819C121.666 42.6951 122.054 42.8107 122.431 43.0287C122.809 43.2467 123.102 43.5241 123.309 43.8609C123.516 44.1977 123.624 44.5599 123.631 44.9474C123.64 45.3315 123.542 45.7019 123.336 46.0587C123.13 46.4155 122.857 46.6877 122.518 46.8752C122.181 47.0592 121.814 47.1457 121.419 47.1345C121.024 47.1233 120.637 47.0087 120.259 46.7907ZM120.673 46.0736C120.888 46.1976 121.11 46.2611 121.339 46.2642C121.571 46.2637 121.786 46.2031 121.985 46.0825C122.187 45.9638 122.353 45.7919 122.483 45.5667C122.613 45.3415 122.679 45.1116 122.681 44.877C122.686 44.6443 122.63 44.4295 122.512 44.2325C122.397 44.032 122.232 43.8698 122.017 43.7458C121.803 43.6218 121.58 43.56 121.349 43.5605C121.119 43.5575 120.903 43.6153 120.701 43.734C120.502 43.8546 120.338 44.0275 120.208 44.2527C120.078 44.4779 120.01 44.7068 120.005 44.9395C120.003 45.1741 120.06 45.3917 120.176 45.5922C120.293 45.7891 120.459 45.9496 120.673 46.0736ZM128.354 46.5313L126.254 50.1686L125.563 49.7696L125.025 46.5142L123.75 48.7226L122.918 48.2426L125.018 44.6053L125.715 45.0073L126.248 48.2597L127.523 46.0513L128.354 46.5313ZM130.457 51.6806L130.061 52.3665L126.881 50.5305L127.196 49.9849L130.58 48.731L128.626 47.603L129.022 46.9172L132.083 48.6842L131.768 49.2297L128.389 50.4866L130.457 51.6806ZM133.807 53.6287L133.417 54.3042L130.601 52.6782L132.701 49.0408L135.45 50.6278L135.06 51.3033L133.147 50.1993L132.691 50.9892L134.38 51.9642L134.002 52.6189L132.313 51.6439L131.827 52.4857L133.807 53.6287Z" fill="#B77B3F"/>
</g>
<g filter="url(#filter9_i_914_1581)">
<path d="M138.387 55.7664C138.13 55.6184 137.967 55.4133 137.897 55.151C137.834 54.8927 137.876 54.6354 138.024 54.3791C138.168 54.1297 138.368 53.9678 138.623 53.8935C138.885 53.8233 139.144 53.8621 139.401 54.0101C139.657 54.1581 139.817 54.3613 139.88 54.6195C139.951 54.8818 139.914 55.1377 139.77 55.3871C139.622 55.6434 139.417 55.8067 139.154 55.877C138.899 55.9513 138.643 55.9144 138.387 55.7664Z" fill="#B77B3F"/>
</g>
<g filter="url(#filter10_i_914_1581)">
<path d="M106.137 37.7664C105.881 37.6184 105.718 37.4132 105.648 37.1509C105.584 36.8927 105.627 36.6354 105.775 36.379C105.919 36.1296 106.118 35.9678 106.374 35.8935C106.636 35.8232 106.895 35.8621 107.151 36.0101C107.408 36.1581 107.568 36.3612 107.631 36.6195C107.701 36.8818 107.664 37.1376 107.52 37.387C107.372 37.6434 107.167 37.8067 106.905 37.8769C106.65 37.9512 106.394 37.9144 106.137 37.7664Z" fill="#B77B3F"/>
</g>
<g filter="url(#filter11_i_914_1581)">
<path d="M65.8712 155.656C65.7014 155.47 65.6025 155.265 65.5748 155.041C65.545 154.821 65.5951 154.598 65.7251 154.373C65.9091 154.054 66.1758 153.88 66.5252 153.851C66.8692 153.823 67.2784 153.946 67.753 154.22L69.634 155.306L67.534 158.944L65.7569 157.918C65.3135 157.662 65.0231 157.381 64.8855 157.075C64.7445 156.767 64.758 156.468 64.926 156.177C65.028 156 65.1623 155.868 65.3289 155.779C65.492 155.688 65.6728 155.647 65.8712 155.656ZM67.0634 157.827L67.5584 156.969L66.7219 156.486C66.514 156.366 66.3354 156.312 66.186 156.322C66.0366 156.333 65.9209 156.409 65.8389 156.551C65.7569 156.694 65.7496 156.83 65.817 156.961C65.8824 157.096 66.019 157.224 66.2269 157.344L67.0634 157.827ZM67.4494 154.89C67.2277 154.762 67.0404 154.703 66.8875 154.711C66.7312 154.718 66.6091 154.798 66.5211 154.95C66.3471 155.251 66.4835 155.531 66.9304 155.789L67.9124 156.356L68.4314 155.457L67.4494 154.89ZM63.3433 151.674L63.4598 153.093L63.5014 153.117L64.234 153.54L64.819 152.526L65.6608 153.012L63.5608 156.65L61.9864 155.741C61.6642 155.555 61.4163 155.34 61.2428 155.096C61.0658 154.851 60.9702 154.593 60.956 154.321C60.9418 154.05 61.0127 153.779 61.1687 153.509C61.3247 153.239 61.5256 153.043 61.7712 152.921C62.0114 152.801 62.281 152.758 62.58 152.792L62.4392 151.152L63.3433 151.674ZM62.0209 154.001C61.9029 154.205 61.8787 154.399 61.9484 154.582C62.016 154.769 62.1763 154.936 62.4291 155.082L63.115 155.478L63.847 154.21L63.1611 153.814C62.9083 153.668 62.684 153.612 62.4884 153.647C62.2927 153.682 62.1369 153.8 62.0209 154.001ZM60.1143 149.727C60.4919 149.945 60.7861 150.223 60.9969 150.562C61.2043 150.899 61.3126 151.259 61.3218 151.643C61.3256 152.029 61.2244 152.4 61.0184 152.757C60.8124 153.114 60.5426 153.385 60.2088 153.571C59.8696 153.759 59.5023 153.847 59.1069 153.836C58.7081 153.822 58.3199 153.707 57.9423 153.489C57.5647 153.271 57.2722 152.993 57.0649 152.657C56.8575 152.32 56.7502 151.958 56.743 151.57C56.7338 151.186 56.8322 150.816 57.0382 150.459C57.2442 150.102 57.5168 149.83 57.856 149.642C58.1932 149.458 58.5595 149.372 58.9549 149.383C59.3502 149.394 59.7367 149.509 60.1143 149.727ZM59.7003 150.444C59.4855 150.32 59.2635 150.256 59.0343 150.253C58.8031 150.254 58.588 150.314 58.389 150.435C58.1866 150.554 58.0203 150.726 57.8903 150.951C57.7603 151.176 57.6946 151.406 57.693 151.641C57.688 151.873 57.7441 152.088 57.8613 152.285C57.9765 152.486 58.1415 152.648 58.3563 152.772C58.5711 152.896 58.7941 152.958 59.0253 152.957C59.2545 152.96 59.4703 152.902 59.6728 152.784C59.8718 152.663 60.0363 152.49 60.1663 152.265C60.2963 152.04 60.3638 151.811 60.3688 151.578C60.3703 151.343 60.3135 151.126 60.1983 150.925C60.0811 150.728 59.9151 150.568 59.7003 150.444ZM52.0196 149.986L54.1196 146.349L54.8107 146.748L55.3492 150.003L56.6242 147.795L57.4555 148.275L55.3555 151.912L54.6593 151.51L54.126 148.258L52.851 150.466L52.0196 149.986ZM49.9168 144.837L50.3128 144.151L53.4929 145.987L53.1779 146.533L49.7935 147.787L51.7473 148.915L51.3513 149.6L48.2908 147.833L48.6058 147.288L51.9849 146.031L49.9168 144.837ZM46.5666 142.889L46.9566 142.213L49.773 143.839L47.673 147.477L44.9242 145.89L45.3142 145.214L47.2264 146.318L47.6824 145.528L45.9936 144.553L46.3716 143.899L48.0604 144.874L48.5464 144.032L46.5666 142.889Z" fill="#B77B3F"/>
</g>
<g filter="url(#filter12_i_914_1581)">
<path d="M41.9869 140.751C42.2432 140.899 42.4065 141.104 42.4768 141.367C42.5401 141.625 42.4978 141.882 42.3498 142.139C42.2058 142.388 42.0061 142.55 41.7508 142.624C41.4885 142.694 41.2292 142.656 40.9729 142.508C40.7165 142.36 40.5567 142.156 40.4933 141.898C40.4231 141.636 40.4599 141.38 40.6039 141.131C40.7519 140.874 40.9571 140.711 41.2193 140.641C41.4747 140.566 41.7305 140.603 41.9869 140.751Z" fill="#B77B3F"/>
</g>
<g filter="url(#filter13_i_914_1581)">
<path d="M74.236 158.751C74.4923 158.899 74.6556 159.104 74.7259 159.366C74.7892 159.625 74.7469 159.882 74.5989 160.138C74.4549 160.388 74.2552 160.55 73.9999 160.624C73.7376 160.694 73.4783 160.655 73.222 160.507C72.9656 160.359 72.8058 160.156 72.7424 159.898C72.6721 159.636 72.709 159.38 72.853 159.13C73.001 158.874 73.2061 158.711 73.4684 158.64C73.7238 158.566 73.9796 158.603 74.236 158.751Z" fill="#B77B3F"/>
</g>
</g>
<defs>
<filter id="filter0_d_914_1581" x="0.450073" y="0.475208" width="183.1" height="199.05" filterUnits="userSpaceOnUse" color-interpolation-filters="sRGB">
<feFlood flood-opacity="0" result="BackgroundImageFix"/>
<feColorMatrix in="SourceAlpha" type="matrix" values="0 0 0 0 0 0 0 0 0 0 0 0 0 0 0 0 0 0 127 0" result="hardAlpha"/>
<feOffset dx="2" dy="2"/>
<feGaussianBlur stdDeviation="12"/>
<feComposite in2="hardAlpha" operator="out"/>
<feColorMatrix type="matrix" values="0 0 0 0 0 0 0 0 0 0 0 0 0 0 0 0 0 0 0.25 0"/>
<feBlend mode="normal" in2="BackgroundImageFix" result="effect1_dropShadow_914_1581"/>
<feBlend mode="normal" in="SourceGraphic" in2="effect1_dropShadow_914_1581" result="shape"/>
</filter>
<filter id="filter1_d_914_1581" x="18.4501" y="22.4752" width="143.1" height="159.05" filterUnits="userSpaceOnUse" color-interpolation-filters="sRGB">
<feFlood flood-opacity="0" result="BackgroundImageFix"/>
<feColorMatrix in="SourceAlpha" type="matrix" values="0 0 0 0 0 0 0 0 0 0 0 0 0 0 0 0 0 0 127 0" result="hardAlpha"/>
<feOffset dy="4"/>
<feGaussianBlur stdDeviation="2"/>
<feComposite in2="hardAlpha" operator="out"/>
<feColorMatrix type="matrix" values="0 0 0 0 0 0 0 0 0 0 0 0 0 0 0 0 0 0 0.25 0"/>
<feBlend mode="normal" in2="BackgroundImageFix" result="effect1_dropShadow_914_1581"/>
<feBlend mode="normal" in="SourceGraphic" in2="effect1_dropShadow_914_1581" result="shape"/>
</filter>
<filter id="filter2_i_914_1581" x="32.3423" y="34.9056" width="115.315" height="130.189" filterUnits="userSpaceOnUse" color-interpolation-filters="sRGB">
<feFlood flood-opacity="0" result="BackgroundImageFix"/>
<feBlend mode="normal" in="SourceGraphic" in2="BackgroundImageFix" result="shape"/>
<feColorMatrix in="SourceAlpha" type="matrix" values="0 0 0 0 0 0 0 0 0 0 0 0 0 0 0 0 0 0 127 0" result="hardAlpha"/>
<feOffset dy="4"/>
<feGaussianBlur stdDeviation="2"/>
<feComposite in2="hardAlpha" operator="arithmetic" k2="-1" k3="1"/>
<feColorMatrix type="matrix" values="0 0 0 0 0 0 0 0 0 0 0 0 0 0 0 0 0 0 0.25 0"/>
<feBlend mode="normal" in2="shape" result="effect1_innerShadow_914_1581"/>
</filter>
<filter id="filter3_d_914_1581" x="39.6676" y="46.9752" width="101.665" height="111.05" filterUnits="userSpaceOnUse" color-interpolation-filters="sRGB">
<feFlood flood-opacity="0" result="BackgroundImageFix"/>
<feColorMatrix in="SourceAlpha" type="matrix" values="0 0 0 0 0 0 0 0 0 0 0 0 0 0 0 0 0 0 127 0" result="hardAlpha"/>
<feOffset dy="4"/>
<feGaussianBlur stdDeviation="2"/>
<feComposite in2="hardAlpha" operator="out"/>
<feColorMatrix type="matrix" values="0 0 0 0 0 0 0 0 0 0 0 0 0 0 0 0 0 0 0.25 0"/>
<feBlend mode="normal" in2="BackgroundImageFix" result="effect1_dropShadow_914_1581"/>
<feBlend mode="normal" in="SourceGraphic" in2="effect1_dropShadow_914_1581" result="shape"/>
</filter>
<filter id="filter4_i_914_1581" x="25.8" y="85.8492" width="4.19995" height="27.2993" filterUnits="userSpaceOnUse" color-interpolation-filters="sRGB">
<feFlood flood-opacity="0" result="BackgroundImageFix"/>
<feBlend mode="normal" in="SourceGraphic" in2="BackgroundImageFix" result="shape"/>
<feColorMatrix in="SourceAlpha" type="matrix" values="0 0 0 0 0 0 0 0 0 0 0 0 0 0 0 0 0 0 127 0" result="hardAlpha"/>
<feOffset dy="4"/>
<feGaussianBlur stdDeviation="2"/>
<feComposite in2="hardAlpha" operator="arithmetic" k2="-1" k3="1"/>
<feColorMatrix type="matrix" values="0 0 0 0 0 0 0 0 0 0 0 0 0 0 0 0 0 0 0.25 0"/>
<feBlend mode="normal" in2="shape" result="effect1_innerShadow_914_1581"/>
</filter>
<filter id="filter5_i_914_1581" x="150" y="86.8515" width="4.20001" height="27.2993" filterUnits="userSpaceOnUse" color-interpolation-filters="sRGB">
<feFlood flood-opacity="0" result="BackgroundImageFix"/>
<feBlend mode="normal" in="SourceGraphic" in2="BackgroundImageFix" result="shape"/>
<feColorMatrix in="SourceAlpha" type="matrix" values="0 0 0 0 0 0 0 0 0 0 0 0 0 0 0 0 0 0 127 0" result="hardAlpha"/>
<feOffset dy="4"/>
<feGaussianBlur stdDeviation="2"/>
<feComposite in2="hardAlpha" operator="arithmetic" k2="-1" k3="1"/>
<feColorMatrix type="matrix" values="0 0 0 0 0 0 0 0 0 0 0 0 0 0 0 0 0 0 0.25 0"/>
<feBlend mode="normal" in2="shape" result="effect1_innerShadow_914_1581"/>
</filter>
<filter id="filter6_i_914_1581" x="60.1976" y="84.6441" width="25.6049" height="28.5479" filterUnits="userSpaceOnUse" color-interpolation-filters="sRGB">
<feFlood flood-opacity="0" result="BackgroundImageFix"/>
<feBlend mode="normal" in="SourceGraphic" in2="BackgroundImageFix" result="shape"/>
<feColorMatrix in="SourceAlpha" type="matrix" values="0 0 0 0 0 0 0 0 0 0 0 0 0 0 0 0 0 0 127 0" result="hardAlpha"/>
<feOffset dy="4"/>
<feGaussianBlur stdDeviation="2"/>
<feComposite in2="hardAlpha" operator="arithmetic" k2="-1" k3="1"/>
<feColorMatrix type="matrix" values="0 0 0 0 0 0 0 0 0 0 0 0 0 0 0 0 0 0 0.25 0"/>
<feBlend mode="normal" in2="shape" result="effect1_innerShadow_914_1581"/>
</filter>
<filter id="filter7_i_914_1581" x="96.1976" y="84.6441" width="25.6049" height="28.5479" filterUnits="userSpaceOnUse" color-interpolation-filters="sRGB">
<feFlood flood-opacity="0" result="BackgroundImageFix"/>
<feBlend mode="normal" in="SourceGraphic" in2="BackgroundImageFix" result="shape"/>
<feColorMatrix in="SourceAlpha" type="matrix" values="0 0 0 0 0 0 0 0 0 0 0 0 0 0 0 0 0 0 127 0" result="hardAlpha"/>
<feOffset dy="4"/>
<feGaussianBlur stdDeviation="2"/>
<feComposite in2="hardAlpha" operator="arithmetic" k2="-1" k3="1"/>
<feColorMatrix type="matrix" values="0 0 0 0 0 0 0 0 0 0 0 0 0 0 0 0 0 0 0.25 0"/>
<feBlend mode="normal" in2="shape" result="effect1_innerShadow_914_1581"/>
</filter>
<filter id="filter8_i_914_1581" x="110.704" y="37.5117" width="24.8494" height="20.8548" filterUnits="userSpaceOnUse" color-interpolation-filters="sRGB">
<feFlood flood-opacity="0" result="BackgroundImageFix"/>
<feBlend mode="normal" in="SourceGraphic" in2="BackgroundImageFix" result="shape"/>
<feColorMatrix in="SourceAlpha" type="matrix" values="0 0 0 0 0 0 0 0 0 0 0 0 0 0 0 0 0 0 127 0" result="hardAlpha"/>
<feOffset dy="4"/>
<feGaussianBlur stdDeviation="2"/>
<feComposite in2="hardAlpha" operator="arithmetic" k2="-1" k3="1"/>
<feColorMatrix type="matrix" values="0 0 0 0 0 0 0 0 0 0 0 0 0 0 0 0 0 0 0.25 0"/>
<feBlend mode="normal" in2="shape" result="effect1_innerShadow_914_1581"/>
</filter>
<filter id="filter9_i_914_1581" x="137.514" y="53.5061" width="2.75989" height="6.7643" filterUnits="userSpaceOnUse" color-interpolation-filters="sRGB">
<feFlood flood-opacity="0" result="BackgroundImageFix"/>
<feBlend mode="normal" in="SourceGraphic" in2="BackgroundImageFix" result="shape"/>
<feColorMatrix in="SourceAlpha" type="matrix" values="0 0 0 0 0 0 0 0 0 0 0 0 0 0 0 0 0 0 127 0" result="hardAlpha"/>
<feOffset dy="4"/>
<feGaussianBlur stdDeviation="2"/>
<feComposite in2="hardAlpha" operator="arithmetic" k2="-1" k3="1"/>
<feColorMatrix type="matrix" values="0 0 0 0 0 0 0 0 0 0 0 0 0 0 0 0 0 0 0.25 0"/>
<feBlend mode="normal" in2="shape" result="effect1_innerShadow_914_1581"/>
</filter>
<filter id="filter10_i_914_1581" x="105.265" y="35.5061" width="2.75989" height="6.7643" filterUnits="userSpaceOnUse" color-interpolation-filters="sRGB">
<feFlood flood-opacity="0" result="BackgroundImageFix"/>
<feBlend mode="normal" in="SourceGraphic" in2="BackgroundImageFix" result="shape"/>
<feColorMatrix in="SourceAlpha" type="matrix" values="0 0 0 0 0 0 0 0 0 0 0 0 0 0 0 0 0 0 127 0" result="hardAlpha"/>
<feOffset dy="4"/>
<feGaussianBlur stdDeviation="2"/>
<feComposite in2="hardAlpha" operator="arithmetic" k2="-1" k3="1"/>
<feColorMatrix type="matrix" values="0 0 0 0 0 0 0 0 0 0 0 0 0 0 0 0 0 0 0.25 0"/>
<feBlend mode="normal" in2="shape" result="effect1_innerShadow_914_1581"/>
</filter>
<filter id="filter11_i_914_1581" x="44.8207" y="142.151" width="24.8494" height="20.8548" filterUnits="userSpaceOnUse" color-interpolation-filters="sRGB">
<feFlood flood-opacity="0" result="BackgroundImageFix"/>
<feBlend mode="normal" in="SourceGraphic" in2="BackgroundImageFix" result="shape"/>
<feColorMatrix in="SourceAlpha" type="matrix" values="0 0 0 0 0 0 0 0 0 0 0 0 0 0 0 0 0 0 127 0" result="hardAlpha"/>
<feOffset dy="4"/>
<feGaussianBlur stdDeviation="2"/>
<feComposite in2="hardAlpha" operator="arithmetic" k2="-1" k3="1"/>
<feColorMatrix type="matrix" values="0 0 0 0 0 0 0 0 0 0 0 0 0 0 0 0 0 0 0.25 0"/>
<feBlend mode="normal" in2="shape" result="effect1_innerShadow_914_1581"/>
</filter>
<filter id="filter12_i_914_1581" x="40.1" y="140.247" width="2.75989" height="6.7643" filterUnits="userSpaceOnUse" color-interpolation-filters="sRGB">
<feFlood flood-opacity="0" result="BackgroundImageFix"/>
<feBlend mode="normal" in="SourceGraphic" in2="BackgroundImageFix" result="shape"/>
<feColorMatrix in="SourceAlpha" type="matrix" values="0 0 0 0 0 0 0 0 0 0 0 0 0 0 0 0 0 0 127 0" result="hardAlpha"/>
<feOffset dy="4"/>
<feGaussianBlur stdDeviation="2"/>
<feComposite in2="hardAlpha" operator="arithmetic" k2="-1" k3="1"/>
<feColorMatrix type="matrix" values="0 0 0 0 0 0 0 0 0 0 0 0 0 0 0 0 0 0 0.25 0"/>
<feBlend mode="normal" in2="shape" result="effect1_innerShadow_914_1581"/>
</filter>
<filter id="filter13_i_914_1581" x="72.349" y="158.247" width="2.75989" height="6.7643" filterUnits="userSpaceOnUse" color-interpolation-filters="sRGB">
<feFlood flood-opacity="0" result="BackgroundImageFix"/>
<feBlend mode="normal" in="SourceGraphic" in2="BackgroundImageFix" result="shape"/>
<feColorMatrix in="SourceAlpha" type="matrix" values="0 0 0 0 0 0 0 0 0 0 0 0 0 0 0 0 0 0 127 0" result="hardAlpha"/>
<feOffset dy="4"/>
<feGaussianBlur stdDeviation="2"/>
<feComposite in2="hardAlpha" operator="arithmetic" k2="-1" k3="1"/>
<feColorMatrix type="matrix" values="0 0 0 0 0 0 0 0 0 0 0 0 0 0 0 0 0 0 0.25 0"/>
<feBlend mode="normal" in2="shape" result="effect1_innerShadow_914_1581"/>
</filter>
</defs>
</svg>
