<svg width="184" height="200" viewBox="0 0 184 200" fill="none" xmlns="http://www.w3.org/2000/svg">
<g filter="url(#filter0_d_914_1539)">
<g filter="url(#filter1_d_914_1539)">
<path d="M82 24.9667C86.9504 22.1086 93.0496 22.1086 98 24.9667L149.55 54.7291C154.5 57.5872 157.55 62.8692 157.55 68.5855V128.11C157.55 133.827 154.5 139.109 149.55 141.967L98 171.729C93.0496 174.587 86.9504 174.587 82 171.729L30.45 141.967C25.4996 139.109 22.45 133.827 22.45 128.11V68.5855C22.45 62.8692 25.4996 57.5872 30.45 54.7291L82 24.9667Z" fill="#E5E4E2"/>
</g>
<g filter="url(#filter2_i_914_1539)">
<path d="M82.0914 37.8447C86.9952 35.0564 93.0048 35.0564 97.9086 37.8447L139.066 61.2471C144.068 64.0912 147.158 69.402 147.158 75.1559V121.54C147.158 127.294 144.068 132.605 139.066 135.449L97.9086 158.851C93.0048 161.639 86.9952 161.639 82.0914 158.851L40.9337 135.449C35.9319 132.605 32.8423 127.294 32.8423 121.54V75.1559C32.8423 69.402 35.9319 64.0912 40.9337 61.2471L82.0914 37.8447Z" fill="#DEDEDE"/>
</g>
<path d="M82.0914 37.8447C86.9952 35.0564 93.0048 35.0564 97.9086 37.8447L139.066 61.2471C144.068 64.0912 147.158 69.402 147.158 75.1559V121.54C147.158 127.294 144.068 132.605 139.066 135.449L97.9086 158.851C93.0048 161.639 86.9952 161.639 82.0914 158.851L40.9337 135.449C35.9319 132.605 32.8423 127.294 32.8423 121.54V75.1559C32.8423 69.402 35.9319 64.0912 40.9337 61.2471L82.0914 37.8447Z" stroke="#EAEAEA"/>
<g filter="url(#filter3_d_914_1539)">
<path d="M82.5 49.9667C87.4504 47.1086 93.5496 47.1086 98.5 49.9667L128.832 67.4791C133.783 70.3372 136.832 75.6192 136.832 81.3355V116.36C136.832 122.077 133.783 127.359 128.832 130.217L98.5 147.729C93.5496 150.587 87.4504 150.587 82.5 147.729L52.1676 130.217C47.2172 127.359 44.1676 122.077 44.1676 116.36V81.3355C44.1676 75.6192 47.2172 70.3372 52.1676 67.4791L82.5 49.9667Z" fill="#E5E4E2"/>
<path d="M82.5 49.9667C87.4504 47.1086 93.5496 47.1086 98.5 49.9667L128.832 67.4791C133.783 70.3372 136.832 75.6192 136.832 81.3355V116.36C136.832 122.077 133.783 127.359 128.832 130.217L98.5 147.729C93.5496 150.587 87.4504 150.587 82.5 147.729L52.1676 130.217C47.2172 127.359 44.1676 122.077 44.1676 116.36V81.3355C44.1676 75.6192 47.2172 70.3372 52.1676 67.4791L82.5 49.9667Z" stroke="#D5D5D5"/>
</g>
<g filter="url(#filter4_i_914_1539)">
<path d="M25.8 120.38L25.8 119.408L30 119.408L30 120.38L25.8 120.38ZM29.1 113.946L29.1 115.896L30 116.268L30 117.264L25.8 115.392L25.8 114.432L30 112.554L30 113.574L29.1 113.946ZM28.362 114.252L26.754 114.918L28.362 115.584L28.362 114.252ZM30 108.296L27.48 108.302L29.556 109.538L29.556 109.976L27.534 111.206L30 111.206L30 112.118L25.8 112.118L25.8 111.314L28.41 109.742L25.8 108.194L25.8 107.396L30 107.384L30 108.296ZM26.592 103.819L26.592 105.163L25.8 105.163L25.8 101.503L26.592 101.503L26.592 102.847L30 102.847L30 103.819L26.592 103.819ZM25.8 97.1277L30 97.1277L30 98.0997L28.278 98.0997L28.278 100.008L30 100.008L30 100.98L25.8 100.98L25.8 100.008L27.456 100.008L27.456 98.0997L25.8 98.0997L25.8 97.1277ZM29.22 92.882L30 92.882L30 96.134L25.8 96.134L25.8 92.96L26.58 92.96L26.58 95.168L27.492 95.168L27.492 93.218L28.248 93.218L28.248 95.168L29.22 95.168L29.22 92.882ZM27.816 87.3254C27.892 87.0854 28.02 86.8974 28.2 86.7614C28.376 86.6254 28.594 86.5574 28.854 86.5574C29.222 86.5574 29.506 86.7014 29.706 86.9894C29.902 87.2734 30 87.6894 30 88.2374L30 90.4094L25.8 90.4094L25.8 88.3574C25.8 87.8454 25.898 87.4534 26.094 87.1814C26.29 86.9054 26.556 86.7674 26.892 86.7674C27.096 86.7674 27.278 86.8174 27.438 86.9174C27.598 87.0134 27.724 87.1494 27.816 87.3254ZM26.532 89.4434L27.522 89.4434L27.522 88.4774C27.522 88.2374 27.48 88.0554 27.396 87.9314C27.312 87.8074 27.188 87.7454 27.024 87.7454C26.86 87.7454 26.738 87.8074 26.658 87.9314C26.574 88.0554 26.532 88.2374 26.532 88.4774L26.532 89.4434ZM29.268 88.3094C29.268 88.0534 29.226 87.8614 29.142 87.7334C29.058 87.6014 28.928 87.5354 28.752 87.5354C28.404 87.5354 28.23 87.7934 28.23 88.3094L28.23 89.4434L29.268 89.4434L29.268 88.3094ZM29.22 82.5695L30 82.5695L30 85.8215L25.8 85.8215L25.8 82.6475L26.58 82.6475L26.58 84.8555L27.492 84.8555L27.492 82.9055L28.248 82.9055L28.248 84.8555L29.22 84.8555L29.22 82.5695ZM30.072 80.4161C30.072 80.7481 30.028 81.0701 29.94 81.3821C29.848 81.6901 29.73 81.9381 29.586 82.1261L28.854 81.7961C28.986 81.6161 29.092 81.4021 29.172 81.1541C29.252 80.9061 29.292 80.6581 29.292 80.4101C29.292 80.1341 29.252 79.9301 29.172 79.7981C29.088 79.6661 28.978 79.6001 28.842 79.6001C28.742 79.6001 28.66 79.6401 28.596 79.7201C28.528 79.7961 28.474 79.8961 28.434 80.0201C28.394 80.1401 28.35 80.3041 28.302 80.5121C28.226 80.8321 28.15 81.0941 28.074 81.2981C27.998 81.5021 27.876 81.6781 27.708 81.8261C27.54 81.9701 27.316 82.0421 27.036 82.0421C26.792 82.0421 26.572 81.9761 26.376 81.8441C26.176 81.7121 26.018 81.5141 25.902 81.2501C25.786 80.9821 25.728 80.6561 25.728 80.2721C25.728 80.0041 25.76 79.7421 25.824 79.4861C25.888 79.2301 25.98 79.0061 26.1 78.8141L26.838 79.1141C26.618 79.5021 26.508 79.8901 26.508 80.2781C26.508 80.5501 26.552 80.7521 26.64 80.8841C26.728 81.0121 26.844 81.0761 26.988 81.0761C27.132 81.0761 27.24 81.0021 27.312 80.8541C27.38 80.7021 27.448 80.4721 27.516 80.1641C27.592 79.8441 27.668 79.5821 27.744 79.3781C27.82 79.1741 27.94 79.0001 28.104 78.8561C28.268 78.7081 28.49 78.6341 28.77 78.6341C29.01 78.6341 29.23 78.7021 29.43 78.8381C29.626 78.9701 29.782 79.1701 29.898 79.4381C30.014 79.7061 30.072 80.0321 30.072 80.4161ZM26.592 77.1586L26.592 78.5026L25.8 78.5026L25.8 74.8426L26.592 74.8426L26.592 76.1866L30 76.1866L30 77.1586L26.592 77.1586Z" fill="#D4D4D4"/>
</g>
<g filter="url(#filter5_i_914_1539)">
<path d="M154.2 76.3156L154.2 77.2876L150 77.2876L150 76.3156L154.2 76.3156ZM150.9 82.7496L150.9 80.7996L150 80.4276L150 79.4316L154.2 81.3036L154.2 82.2636L150 84.1416L150 83.1216L150.9 82.7496ZM151.638 82.4436L153.246 81.7776L151.638 81.1116L151.638 82.4436ZM150 88.3993L152.52 88.3933L150.444 87.1573L150.444 86.7193L152.466 85.4893L150 85.4893L150 84.5773L154.2 84.5773L154.2 85.3813L151.59 86.9533L154.2 88.5013L154.2 89.2993L150 89.3113L150 88.3993ZM153.408 92.877L153.408 91.533L154.2 91.533L154.2 95.193L153.408 95.193L153.408 93.849L150 93.849L150 92.877L153.408 92.877ZM154.2 99.568L150 99.568L150 98.596L151.722 98.596L151.722 96.688L150 96.688L150 95.716L154.2 95.716L154.2 96.688L152.544 96.688L152.544 98.596L154.2 98.596L154.2 99.568ZM150.78 103.814L150 103.814L150 100.562L154.2 100.562L154.2 103.736L153.42 103.736L153.42 101.528L152.508 101.528L152.508 103.478L151.752 103.478L151.752 101.528L150.78 101.528L150.78 103.814ZM152.184 109.37C152.108 109.61 151.98 109.798 151.8 109.934C151.624 110.07 151.406 110.138 151.146 110.138C150.778 110.138 150.494 109.994 150.294 109.706C150.098 109.422 150 109.006 150 108.458L150 106.286L154.2 106.286L154.2 108.338C154.2 108.85 154.102 109.242 153.906 109.514C153.71 109.79 153.444 109.928 153.108 109.928C152.904 109.928 152.722 109.878 152.562 109.778C152.402 109.682 152.276 109.546 152.184 109.37ZM153.468 107.252L152.478 107.252L152.478 108.218C152.478 108.458 152.52 108.64 152.604 108.764C152.688 108.888 152.812 108.95 152.976 108.95C153.14 108.95 153.262 108.888 153.342 108.764C153.426 108.64 153.468 108.458 153.468 108.218L153.468 107.252ZM150.732 108.386C150.732 108.642 150.774 108.834 150.858 108.962C150.942 109.094 151.072 109.16 151.248 109.16C151.596 109.16 151.77 108.902 151.77 108.386L151.77 107.252L150.732 107.252L150.732 108.386ZM150.78 114.126L150 114.126L150 110.874L154.2 110.874L154.2 114.048L153.42 114.048L153.42 111.84L152.508 111.84L152.508 113.79L151.752 113.79L151.752 111.84L150.78 111.84L150.78 114.126ZM149.928 116.28C149.928 115.948 149.972 115.626 150.06 115.314C150.152 115.006 150.27 114.758 150.414 114.57L151.146 114.9C151.014 115.08 150.908 115.294 150.828 115.542C150.748 115.79 150.708 116.038 150.708 116.286C150.708 116.562 150.748 116.766 150.828 116.898C150.912 117.03 151.022 117.096 151.158 117.096C151.258 117.096 151.34 117.056 151.404 116.976C151.472 116.9 151.526 116.8 151.566 116.676C151.606 116.556 151.65 116.392 151.698 116.184C151.774 115.864 151.85 115.602 151.926 115.398C152.002 115.194 152.124 115.018 152.292 114.87C152.46 114.726 152.684 114.654 152.964 114.654C153.208 114.654 153.428 114.72 153.624 114.852C153.824 114.984 153.982 115.182 154.098 115.446C154.214 115.714 154.272 116.04 154.272 116.424C154.272 116.692 154.24 116.954 154.176 117.21C154.112 117.466 154.02 117.69 153.9 117.882L153.162 117.582C153.382 117.194 153.492 116.806 153.492 116.418C153.492 116.146 153.448 115.944 153.36 115.812C153.272 115.684 153.156 115.62 153.012 115.62C152.868 115.62 152.76 115.694 152.688 115.842C152.62 115.994 152.552 116.224 152.484 116.532C152.408 116.852 152.332 117.114 152.256 117.318C152.18 117.522 152.06 117.696 151.896 117.84C151.732 117.988 151.51 118.062 151.23 118.062C150.99 118.062 150.77 117.994 150.57 117.858C150.374 117.726 150.218 117.526 150.102 117.258C149.986 116.99 149.928 116.664 149.928 116.28ZM153.408 119.537L153.408 118.193L154.2 118.193L154.2 121.853L153.408 121.853L153.408 120.509L150 120.509L150 119.537L153.408 119.537Z" fill="#D4D4D4"/>
</g>
<g filter="url(#filter6_i_914_1539)">
<path d="M62.195 78.1306C62.9194 76.6124 65.0806 76.6124 65.805 78.1306L66.9887 80.6112C67.2803 81.2222 67.8611 81.6442 68.5324 81.7327L71.2573 82.0919C72.9251 82.3118 73.5929 84.3671 72.3729 85.5253L70.3795 87.4176C69.8885 87.8837 69.6666 88.5665 69.7899 89.2322L70.2903 91.9348C70.5966 93.5889 68.8482 94.8592 67.3697 94.0568L64.954 92.7457C64.359 92.4227 63.641 92.4227 63.046 92.7457L60.6303 94.0568C59.1518 94.8592 57.4034 93.5889 57.7097 91.9348L58.2101 89.2322C58.3334 88.5665 58.1115 87.8837 57.6205 87.4176L55.6271 85.5253C54.4071 84.3671 55.0749 82.3118 56.7427 82.0919L59.4676 81.7327C60.1389 81.6442 60.7197 81.2222 61.0113 80.6112L62.195 78.1306Z" fill="#DEDEDE"/>
</g>
<g filter="url(#filter7_i_914_1539)">
<path d="M100.195 106.13C100.919 104.612 103.081 104.612 103.805 106.13L104.989 108.611C105.28 109.222 105.861 109.644 106.532 109.732L109.257 110.092C110.925 110.312 111.593 112.367 110.373 113.525L108.379 115.417C107.888 115.883 107.667 116.566 107.79 117.232L108.29 119.935C108.597 121.589 106.848 122.859 105.37 122.057L102.954 120.745C102.359 120.423 101.641 120.423 101.046 120.745L98.6303 122.057C97.1518 122.859 95.4034 121.589 95.7097 119.935L96.2101 117.232C96.3334 116.566 96.1115 115.883 95.6205 115.417L93.6271 113.525C92.4071 112.367 93.0749 110.312 94.7427 110.092L97.4676 109.732C98.1389 109.644 98.7197 109.222 99.0113 108.611L100.195 106.13Z" fill="#DEDEDE"/>
</g>
<g filter="url(#filter8_i_914_1539)">
<path d="M75.195 106.13C75.9194 104.612 78.0806 104.612 78.805 106.13L79.9887 108.611C80.2803 109.222 80.8611 109.644 81.5324 109.732L84.2573 110.092C85.9251 110.312 86.5929 112.367 85.3729 113.525L83.3795 115.417C82.8885 115.883 82.6666 116.566 82.7899 117.232L83.2903 119.935C83.5966 121.589 81.8482 122.859 80.3697 122.057L77.954 120.745C77.359 120.423 76.641 120.423 76.046 120.745L73.6303 122.057C72.1518 122.859 70.4034 121.589 70.7097 119.935L71.2101 117.232C71.3334 116.566 71.1115 115.883 70.6205 115.417L68.6271 113.525C67.4071 112.367 68.0749 110.312 69.7427 110.092L72.4676 109.732C73.1389 109.644 73.7197 109.222 74.0113 108.611L75.195 106.13Z" fill="#DEDEDE"/>
</g>
<g filter="url(#filter9_i_914_1539)">
<path d="M88.195 78.1306C88.9194 76.6124 91.0806 76.6124 91.805 78.1306L92.9887 80.6112C93.2803 81.2222 93.8611 81.6442 94.5324 81.7327L97.2573 82.0919C98.9251 82.3118 99.5929 84.3671 98.3729 85.5253L96.3795 87.4176C95.8885 87.8837 95.6666 88.5665 95.7899 89.2322L96.2903 91.9348C96.5966 93.5889 94.8482 94.8592 93.3697 94.0568L90.954 92.7457C90.359 92.4227 89.641 92.4227 89.046 92.7457L86.6303 94.0568C85.1518 94.8592 83.4034 93.5889 83.7097 91.9348L84.2101 89.2322C84.3334 88.5665 84.1115 87.8837 83.6205 87.4176L81.6271 85.5253C80.4071 84.3671 81.0749 82.3118 82.7427 82.0919L85.4676 81.7327C86.1389 81.6442 86.7197 81.2222 87.0113 80.6112L88.195 78.1306Z" fill="#DEDEDE"/>
</g>
<g filter="url(#filter10_i_914_1539)">
<path d="M114.195 78.1306C114.919 76.6124 117.081 76.6124 117.805 78.1306L118.989 80.6112C119.28 81.2222 119.861 81.6442 120.532 81.7327L123.257 82.0919C124.925 82.3118 125.593 84.3671 124.373 85.5253L122.379 87.4176C121.888 87.8837 121.667 88.5665 121.79 89.2322L122.29 91.9348C122.597 93.5889 120.848 94.8592 119.37 94.0568L116.954 92.7457C116.359 92.4227 115.641 92.4227 115.046 92.7457L112.63 94.0568C111.152 94.8592 109.403 93.5889 109.71 91.9348L110.21 89.2322C110.333 88.5665 110.112 87.8837 109.621 87.4176L107.627 85.5253C106.407 84.3671 107.075 82.3118 108.743 82.0919L111.468 81.7327C112.139 81.6442 112.72 81.2222 113.011 80.6112L114.195 78.1306Z" fill="#DEDEDE"/>
</g>
<g filter="url(#filter11_i_914_1539)">
<path d="M111.211 36.9813C111.533 37.1673 111.781 37.382 111.954 37.6254C112.131 37.8708 112.227 38.1292 112.241 38.4007C112.255 38.6721 112.184 38.9429 112.028 39.2131C111.874 39.4799 111.675 39.6767 111.431 39.8036C111.189 39.9271 110.917 39.9735 110.616 39.9429C110.321 39.9108 110.012 39.8018 109.69 39.6158L108.957 39.1928L108.378 40.1956L107.536 39.7096L109.636 36.0723L111.211 36.9813ZM110.039 38.9029C110.292 39.0489 110.515 39.1062 110.709 39.0748C110.904 39.0399 111.06 38.9221 111.176 38.7211C111.294 38.5168 111.318 38.3229 111.249 38.1395C111.181 37.9526 111.021 37.7862 110.768 37.6402L110.082 37.2442L109.353 38.5069L110.039 38.9029ZM113.391 38.2403L114.233 38.7263L112.529 41.6777L114.353 42.7307L113.957 43.4166L111.291 41.8776L113.391 38.2403ZM117.303 44.3093L115.614 43.3343L114.842 43.9277L113.98 43.4297L117.701 40.7284L118.532 41.2084L118.059 45.7847L117.175 45.2747L117.303 44.3093ZM117.407 43.5172L117.634 41.7916L116.253 42.8512L117.407 43.5172ZM120.711 43.3807L119.547 42.7087L119.943 42.0228L123.112 43.8528L122.716 44.5387L121.552 43.8667L119.848 46.8181L119.007 46.3321L120.711 43.3807ZM123.565 44.1143L124.407 44.6003L122.307 48.2376L121.465 47.7516L123.565 44.1143ZM128.606 47.0247L126.506 50.662L125.815 50.263L125.277 47.0076L124.002 49.216L123.17 48.736L125.27 45.0987L125.967 45.5007L126.5 48.7531L127.775 46.5447L128.606 47.0247ZM128.947 52.1542C128.427 51.8542 128.105 51.4764 127.98 51.0209C127.858 50.5674 127.952 50.0739 128.26 49.5404L129.436 47.5035L130.277 47.9895L129.119 49.9953C128.743 50.6465 128.826 51.1281 129.366 51.4401C129.629 51.5921 129.875 51.6302 130.104 51.5543C130.334 51.475 130.547 51.2673 130.741 50.9313L131.899 48.9255L132.73 49.4055L131.554 51.4424C131.246 51.9759 130.864 52.3024 130.407 52.4219C129.953 52.5434 129.466 52.4542 128.947 52.1542ZM134.772 55.4341L136.027 53.2487L133.918 54.4286L133.539 54.2096L133.485 51.8435L132.252 53.9791L131.462 53.5231L133.562 49.8858L134.258 50.2878L134.315 53.3341L136.96 51.8478L137.651 52.2468L135.562 55.8901L134.772 55.4341Z" fill="#D4D4D4"/>
</g>
<g filter="url(#filter12_i_914_1539)">
<path d="M140.387 57.1144C140.131 56.9664 139.967 56.7612 139.897 56.4989C139.834 56.2407 139.876 55.9834 140.024 55.727C140.168 55.4776 140.368 55.3157 140.623 55.2415C140.885 55.1712 141.145 55.2101 141.401 55.3581C141.657 55.5061 141.817 55.7092 141.88 55.9675C141.951 56.2297 141.914 56.4856 141.77 56.735C141.622 56.9914 141.417 57.1547 141.154 57.2249C140.899 57.2992 140.643 57.2624 140.387 57.1144Z" fill="#D5D5D5"/>
</g>
<g filter="url(#filter13_i_914_1539)">
<path d="M104.138 37.1149C103.882 36.9669 103.719 36.7617 103.648 36.4995C103.585 36.2412 103.627 35.9839 103.775 35.7275C103.919 35.4781 104.119 35.3163 104.374 35.242C104.637 35.1717 104.896 35.2106 105.152 35.3586C105.409 35.5066 105.569 35.7097 105.632 35.968C105.702 36.2303 105.665 36.4861 105.521 36.7355C105.373 36.9919 105.168 37.1552 104.906 37.2255C104.651 37.2997 104.395 37.2629 104.138 37.1149Z" fill="#D5D5D5"/>
</g>
<g filter="url(#filter14_i_914_1539)">
<path d="M69.1632 160.232C68.841 160.046 68.5932 159.831 68.4196 159.588C68.2426 159.343 68.147 159.084 68.1328 158.813C68.1186 158.541 68.1896 158.27 68.3456 158C68.4996 157.733 68.6986 157.537 68.9428 157.41C69.185 157.286 69.4566 157.24 69.7576 157.27C70.0532 157.303 70.362 157.412 70.6842 157.598L71.4168 158.021L71.9958 157.018L72.8376 157.504L70.7376 161.141L69.1632 160.232ZM70.335 158.31C70.0821 158.164 69.8588 158.107 69.6652 158.139C69.4695 158.173 69.3137 158.291 69.1977 158.492C69.0797 158.697 69.0555 158.89 69.1252 159.074C69.1928 159.261 69.3531 159.427 69.606 159.573L70.2918 159.969L71.0208 158.706L70.335 158.31ZM66.9826 158.973L66.1408 158.487L67.8448 155.536L66.021 154.483L66.417 153.797L69.0826 155.336L66.9826 158.973ZM63.0708 152.904L64.7595 153.879L65.5317 153.286L66.3942 153.784L62.673 156.485L61.8416 156.005L62.3153 151.429L63.1986 151.939L63.0708 152.904ZM62.9668 153.696L62.7395 155.422L64.1203 154.362L62.9668 153.696ZM59.6631 153.833L60.8271 154.505L60.4311 155.191L57.2614 153.361L57.6574 152.675L58.8213 153.347L60.5253 150.395L61.3671 150.881L59.6631 153.833ZM56.8085 153.099L55.9667 152.613L58.0667 148.976L58.9085 149.462L56.8085 153.099ZM51.7676 150.189L53.8676 146.551L54.5587 146.95L55.0971 150.206L56.3721 147.997L57.2035 148.477L55.1035 152.115L54.4072 151.713L53.874 148.46L52.599 150.669L51.7676 150.189ZM51.427 145.059C51.9466 145.359 52.2689 145.737 52.3939 146.192C52.5154 146.646 52.4222 147.139 52.1142 147.673L50.9382 149.71L50.0964 149.224L51.2544 147.218C51.6304 146.567 51.5482 146.085 51.0078 145.773C50.7445 145.621 50.4986 145.583 50.27 145.659C50.0395 145.738 49.8272 145.946 49.6332 146.282L48.4752 148.288L47.6438 147.808L48.8198 145.771C49.1278 145.237 49.5103 144.911 49.9673 144.791C50.4208 144.67 50.9074 144.759 51.427 145.059ZM45.602 141.779L44.3472 143.965L46.4556 142.785L46.835 143.004L46.8892 145.37L48.1222 143.234L48.912 143.69L46.812 147.328L46.1157 146.926L46.0593 143.879L43.4137 145.366L42.7226 144.967L44.8122 141.323L45.602 141.779Z" fill="#D4D4D4"/>
</g>
<g filter="url(#filter15_i_914_1539)">
<path d="M39.9871 140.099C40.2434 140.247 40.4067 140.452 40.477 140.715C40.5403 140.973 40.498 141.23 40.35 141.487C40.206 141.736 40.0063 141.898 39.751 141.972C39.4887 142.042 39.2294 142.003 38.9731 141.855C38.7167 141.707 38.5569 141.504 38.4935 141.246C38.4232 140.984 38.4601 140.728 38.6041 140.479C38.7521 140.222 38.9572 140.059 39.2195 139.989C39.4749 139.914 39.7307 139.951 39.9871 140.099Z" fill="#D5D5D5"/>
</g>
<g filter="url(#filter16_i_914_1539)">
<path d="M76.2359 161.099C76.4922 161.247 76.6555 161.452 76.7258 161.714C76.7892 161.972 76.7468 162.23 76.5988 162.486C76.4548 162.735 76.2552 162.897 75.9998 162.972C75.7375 163.042 75.4782 163.003 75.2219 162.855C74.9655 162.707 74.8057 162.504 74.7424 162.246C74.6721 161.983 74.7089 161.727 74.8529 161.478C75.0009 161.222 75.2061 161.058 75.4684 160.988C75.7237 160.914 75.9795 160.951 76.2359 161.099Z" fill="#D5D5D5"/>
</g>
</g>
<defs>
<filter id="filter0_d_914_1539" x="0.450012" y="0.823088" width="183.1" height="199.05" filterUnits="userSpaceOnUse" color-interpolation-filters="sRGB">
<feFlood flood-opacity="0" result="BackgroundImageFix"/>
<feColorMatrix in="SourceAlpha" type="matrix" values="0 0 0 0 0 0 0 0 0 0 0 0 0 0 0 0 0 0 127 0" result="hardAlpha"/>
<feOffset dx="2" dy="2"/>
<feGaussianBlur stdDeviation="12"/>
<feComposite in2="hardAlpha" operator="out"/>
<feColorMatrix type="matrix" values="0 0 0 0 0 0 0 0 0 0 0 0 0 0 0 0 0 0 0.25 0"/>
<feBlend mode="normal" in2="BackgroundImageFix" result="effect1_dropShadow_914_1539"/>
<feBlend mode="normal" in="SourceGraphic" in2="effect1_dropShadow_914_1539" result="shape"/>
</filter>
<filter id="filter1_d_914_1539" x="18.45" y="22.8231" width="143.1" height="159.05" filterUnits="userSpaceOnUse" color-interpolation-filters="sRGB">
<feFlood flood-opacity="0" result="BackgroundImageFix"/>
<feColorMatrix in="SourceAlpha" type="matrix" values="0 0 0 0 0 0 0 0 0 0 0 0 0 0 0 0 0 0 127 0" result="hardAlpha"/>
<feOffset dy="4"/>
<feGaussianBlur stdDeviation="2"/>
<feComposite in2="hardAlpha" operator="out"/>
<feColorMatrix type="matrix" values="0 0 0 0 0 0 0 0 0 0 0 0 0 0 0 0 0 0 0.25 0"/>
<feBlend mode="normal" in2="BackgroundImageFix" result="effect1_dropShadow_914_1539"/>
<feBlend mode="normal" in="SourceGraphic" in2="effect1_dropShadow_914_1539" result="shape"/>
</filter>
<filter id="filter2_i_914_1539" x="32.3423" y="35.2535" width="115.315" height="130.189" filterUnits="userSpaceOnUse" color-interpolation-filters="sRGB">
<feFlood flood-opacity="0" result="BackgroundImageFix"/>
<feBlend mode="normal" in="SourceGraphic" in2="BackgroundImageFix" result="shape"/>
<feColorMatrix in="SourceAlpha" type="matrix" values="0 0 0 0 0 0 0 0 0 0 0 0 0 0 0 0 0 0 127 0" result="hardAlpha"/>
<feOffset dy="4"/>
<feGaussianBlur stdDeviation="2"/>
<feComposite in2="hardAlpha" operator="arithmetic" k2="-1" k3="1"/>
<feColorMatrix type="matrix" values="0 0 0 0 0 0 0 0 0 0 0 0 0 0 0 0 0 0 0.25 0"/>
<feBlend mode="normal" in2="shape" result="effect1_innerShadow_914_1539"/>
</filter>
<filter id="filter3_d_914_1539" x="39.6676" y="47.3231" width="101.665" height="111.05" filterUnits="userSpaceOnUse" color-interpolation-filters="sRGB">
<feFlood flood-opacity="0" result="BackgroundImageFix"/>
<feColorMatrix in="SourceAlpha" type="matrix" values="0 0 0 0 0 0 0 0 0 0 0 0 0 0 0 0 0 0 127 0" result="hardAlpha"/>
<feOffset dy="4"/>
<feGaussianBlur stdDeviation="2"/>
<feComposite in2="hardAlpha" operator="out"/>
<feColorMatrix type="matrix" values="0 0 0 0 0 0 0 0 0 0 0 0 0 0 0 0 0 0 0.25 0"/>
<feBlend mode="normal" in2="BackgroundImageFix" result="effect1_dropShadow_914_1539"/>
<feBlend mode="normal" in="SourceGraphic" in2="effect1_dropShadow_914_1539" result="shape"/>
</filter>
<filter id="filter4_i_914_1539" x="25.728" y="74.8426" width="4.34399" height="49.5376" filterUnits="userSpaceOnUse" color-interpolation-filters="sRGB">
<feFlood flood-opacity="0" result="BackgroundImageFix"/>
<feBlend mode="normal" in="SourceGraphic" in2="BackgroundImageFix" result="shape"/>
<feColorMatrix in="SourceAlpha" type="matrix" values="0 0 0 0 0 0 0 0 0 0 0 0 0 0 0 0 0 0 127 0" result="hardAlpha"/>
<feOffset dy="4"/>
<feGaussianBlur stdDeviation="2"/>
<feComposite in2="hardAlpha" operator="arithmetic" k2="-1" k3="1"/>
<feColorMatrix type="matrix" values="0 0 0 0 0 0 0 0 0 0 0 0 0 0 0 0 0 0 0.25 0"/>
<feBlend mode="normal" in2="shape" result="effect1_innerShadow_914_1539"/>
</filter>
<filter id="filter5_i_914_1539" x="149.928" y="76.3156" width="4.34399" height="49.5376" filterUnits="userSpaceOnUse" color-interpolation-filters="sRGB">
<feFlood flood-opacity="0" result="BackgroundImageFix"/>
<feBlend mode="normal" in="SourceGraphic" in2="BackgroundImageFix" result="shape"/>
<feColorMatrix in="SourceAlpha" type="matrix" values="0 0 0 0 0 0 0 0 0 0 0 0 0 0 0 0 0 0 127 0" result="hardAlpha"/>
<feOffset dy="4"/>
<feGaussianBlur stdDeviation="2"/>
<feComposite in2="hardAlpha" operator="arithmetic" k2="-1" k3="1"/>
<feColorMatrix type="matrix" values="0 0 0 0 0 0 0 0 0 0 0 0 0 0 0 0 0 0 0.25 0"/>
<feBlend mode="normal" in2="shape" result="effect1_innerShadow_914_1539"/>
</filter>
<filter id="filter6_i_914_1539" x="55.0018" y="76.9919" width="17.9965" height="21.3118" filterUnits="userSpaceOnUse" color-interpolation-filters="sRGB">
<feFlood flood-opacity="0" result="BackgroundImageFix"/>
<feBlend mode="normal" in="SourceGraphic" in2="BackgroundImageFix" result="shape"/>
<feColorMatrix in="SourceAlpha" type="matrix" values="0 0 0 0 0 0 0 0 0 0 0 0 0 0 0 0 0 0 127 0" result="hardAlpha"/>
<feOffset dy="4"/>
<feGaussianBlur stdDeviation="2"/>
<feComposite in2="hardAlpha" operator="arithmetic" k2="-1" k3="1"/>
<feColorMatrix type="matrix" values="0 0 0 0 0 0 0 0 0 0 0 0 0 0 0 0 0 0 0.25 0"/>
<feBlend mode="normal" in2="shape" result="effect1_innerShadow_914_1539"/>
</filter>
<filter id="filter7_i_914_1539" x="93.0018" y="104.992" width="17.9965" height="21.3118" filterUnits="userSpaceOnUse" color-interpolation-filters="sRGB">
<feFlood flood-opacity="0" result="BackgroundImageFix"/>
<feBlend mode="normal" in="SourceGraphic" in2="BackgroundImageFix" result="shape"/>
<feColorMatrix in="SourceAlpha" type="matrix" values="0 0 0 0 0 0 0 0 0 0 0 0 0 0 0 0 0 0 127 0" result="hardAlpha"/>
<feOffset dy="4"/>
<feGaussianBlur stdDeviation="2"/>
<feComposite in2="hardAlpha" operator="arithmetic" k2="-1" k3="1"/>
<feColorMatrix type="matrix" values="0 0 0 0 0 0 0 0 0 0 0 0 0 0 0 0 0 0 0.25 0"/>
<feBlend mode="normal" in2="shape" result="effect1_innerShadow_914_1539"/>
</filter>
<filter id="filter8_i_914_1539" x="68.0018" y="104.992" width="17.9965" height="21.3118" filterUnits="userSpaceOnUse" color-interpolation-filters="sRGB">
<feFlood flood-opacity="0" result="BackgroundImageFix"/>
<feBlend mode="normal" in="SourceGraphic" in2="BackgroundImageFix" result="shape"/>
<feColorMatrix in="SourceAlpha" type="matrix" values="0 0 0 0 0 0 0 0 0 0 0 0 0 0 0 0 0 0 127 0" result="hardAlpha"/>
<feOffset dy="4"/>
<feGaussianBlur stdDeviation="2"/>
<feComposite in2="hardAlpha" operator="arithmetic" k2="-1" k3="1"/>
<feColorMatrix type="matrix" values="0 0 0 0 0 0 0 0 0 0 0 0 0 0 0 0 0 0 0.25 0"/>
<feBlend mode="normal" in2="shape" result="effect1_innerShadow_914_1539"/>
</filter>
<filter id="filter9_i_914_1539" x="81.0018" y="76.9919" width="17.9965" height="21.3118" filterUnits="userSpaceOnUse" color-interpolation-filters="sRGB">
<feFlood flood-opacity="0" result="BackgroundImageFix"/>
<feBlend mode="normal" in="SourceGraphic" in2="BackgroundImageFix" result="shape"/>
<feColorMatrix in="SourceAlpha" type="matrix" values="0 0 0 0 0 0 0 0 0 0 0 0 0 0 0 0 0 0 127 0" result="hardAlpha"/>
<feOffset dy="4"/>
<feGaussianBlur stdDeviation="2"/>
<feComposite in2="hardAlpha" operator="arithmetic" k2="-1" k3="1"/>
<feColorMatrix type="matrix" values="0 0 0 0 0 0 0 0 0 0 0 0 0 0 0 0 0 0 0.25 0"/>
<feBlend mode="normal" in2="shape" result="effect1_innerShadow_914_1539"/>
</filter>
<filter id="filter10_i_914_1539" x="107.002" y="76.9919" width="17.9965" height="21.3118" filterUnits="userSpaceOnUse" color-interpolation-filters="sRGB">
<feFlood flood-opacity="0" result="BackgroundImageFix"/>
<feBlend mode="normal" in="SourceGraphic" in2="BackgroundImageFix" result="shape"/>
<feColorMatrix in="SourceAlpha" type="matrix" values="0 0 0 0 0 0 0 0 0 0 0 0 0 0 0 0 0 0 127 0" result="hardAlpha"/>
<feOffset dy="4"/>
<feGaussianBlur stdDeviation="2"/>
<feComposite in2="hardAlpha" operator="arithmetic" k2="-1" k3="1"/>
<feColorMatrix type="matrix" values="0 0 0 0 0 0 0 0 0 0 0 0 0 0 0 0 0 0 0.25 0"/>
<feBlend mode="normal" in2="shape" result="effect1_innerShadow_914_1539"/>
</filter>
<filter id="filter11_i_914_1539" x="107.5" y="36.0723" width="30.1614" height="23.8801" filterUnits="userSpaceOnUse" color-interpolation-filters="sRGB">
<feFlood flood-opacity="0" result="BackgroundImageFix"/>
<feBlend mode="normal" in="SourceGraphic" in2="BackgroundImageFix" result="shape"/>
<feColorMatrix in="SourceAlpha" type="matrix" values="0 0 0 0 0 0 0 0 0 0 0 0 0 0 0 0 0 0 127 0" result="hardAlpha"/>
<feOffset dy="4"/>
<feGaussianBlur stdDeviation="2"/>
<feComposite in2="hardAlpha" operator="arithmetic" k2="-1" k3="1"/>
<feColorMatrix type="matrix" values="0 0 0 0 0 0 0 0 0 0 0 0 0 0 0 0 0 0 0.25 0"/>
<feBlend mode="normal" in2="shape" result="effect1_innerShadow_914_1539"/>
</filter>
<filter id="filter12_i_914_1539" x="139.514" y="54.8541" width="2.75992" height="6.7643" filterUnits="userSpaceOnUse" color-interpolation-filters="sRGB">
<feFlood flood-opacity="0" result="BackgroundImageFix"/>
<feBlend mode="normal" in="SourceGraphic" in2="BackgroundImageFix" result="shape"/>
<feColorMatrix in="SourceAlpha" type="matrix" values="0 0 0 0 0 0 0 0 0 0 0 0 0 0 0 0 0 0 127 0" result="hardAlpha"/>
<feOffset dy="4"/>
<feGaussianBlur stdDeviation="2"/>
<feComposite in2="hardAlpha" operator="arithmetic" k2="-1" k3="1"/>
<feColorMatrix type="matrix" values="0 0 0 0 0 0 0 0 0 0 0 0 0 0 0 0 0 0 0.25 0"/>
<feBlend mode="normal" in2="shape" result="effect1_innerShadow_914_1539"/>
</filter>
<filter id="filter13_i_914_1539" x="103.265" y="34.8546" width="2.75992" height="6.7643" filterUnits="userSpaceOnUse" color-interpolation-filters="sRGB">
<feFlood flood-opacity="0" result="BackgroundImageFix"/>
<feBlend mode="normal" in="SourceGraphic" in2="BackgroundImageFix" result="shape"/>
<feColorMatrix in="SourceAlpha" type="matrix" values="0 0 0 0 0 0 0 0 0 0 0 0 0 0 0 0 0 0 127 0" result="hardAlpha"/>
<feOffset dy="4"/>
<feGaussianBlur stdDeviation="2"/>
<feComposite in2="hardAlpha" operator="arithmetic" k2="-1" k3="1"/>
<feColorMatrix type="matrix" values="0 0 0 0 0 0 0 0 0 0 0 0 0 0 0 0 0 0 0.25 0"/>
<feBlend mode="normal" in2="shape" result="effect1_innerShadow_914_1539"/>
</filter>
<filter id="filter14_i_914_1539" x="42.7122" y="141.261" width="30.1614" height="23.8801" filterUnits="userSpaceOnUse" color-interpolation-filters="sRGB">
<feFlood flood-opacity="0" result="BackgroundImageFix"/>
<feBlend mode="normal" in="SourceGraphic" in2="BackgroundImageFix" result="shape"/>
<feColorMatrix in="SourceAlpha" type="matrix" values="0 0 0 0 0 0 0 0 0 0 0 0 0 0 0 0 0 0 127 0" result="hardAlpha"/>
<feOffset dy="4"/>
<feGaussianBlur stdDeviation="2"/>
<feComposite in2="hardAlpha" operator="arithmetic" k2="-1" k3="1"/>
<feColorMatrix type="matrix" values="0 0 0 0 0 0 0 0 0 0 0 0 0 0 0 0 0 0 0.25 0"/>
<feBlend mode="normal" in2="shape" result="effect1_innerShadow_914_1539"/>
</filter>
<filter id="filter15_i_914_1539" x="38.1001" y="139.595" width="2.75992" height="6.7643" filterUnits="userSpaceOnUse" color-interpolation-filters="sRGB">
<feFlood flood-opacity="0" result="BackgroundImageFix"/>
<feBlend mode="normal" in="SourceGraphic" in2="BackgroundImageFix" result="shape"/>
<feColorMatrix in="SourceAlpha" type="matrix" values="0 0 0 0 0 0 0 0 0 0 0 0 0 0 0 0 0 0 127 0" result="hardAlpha"/>
<feOffset dy="4"/>
<feGaussianBlur stdDeviation="2"/>
<feComposite in2="hardAlpha" operator="arithmetic" k2="-1" k3="1"/>
<feColorMatrix type="matrix" values="0 0 0 0 0 0 0 0 0 0 0 0 0 0 0 0 0 0 0.25 0"/>
<feBlend mode="normal" in2="shape" result="effect1_innerShadow_914_1539"/>
</filter>
<filter id="filter16_i_914_1539" x="74.3489" y="160.595" width="2.75992" height="6.7643" filterUnits="userSpaceOnUse" color-interpolation-filters="sRGB">
<feFlood flood-opacity="0" result="BackgroundImageFix"/>
<feBlend mode="normal" in="SourceGraphic" in2="BackgroundImageFix" result="shape"/>
<feColorMatrix in="SourceAlpha" type="matrix" values="0 0 0 0 0 0 0 0 0 0 0 0 0 0 0 0 0 0 127 0" result="hardAlpha"/>
<feOffset dy="4"/>
<feGaussianBlur stdDeviation="2"/>
<feComposite in2="hardAlpha" operator="arithmetic" k2="-1" k3="1"/>
<feColorMatrix type="matrix" values="0 0 0 0 0 0 0 0 0 0 0 0 0 0 0 0 0 0 0.25 0"/>
<feBlend mode="normal" in2="shape" result="effect1_innerShadow_914_1539"/>
</filter>
</defs>
</svg>
