<svg width="184" height="200" viewBox="0 0 184 200" fill="none" xmlns="http://www.w3.org/2000/svg">
<g filter="url(#filter0_d_914_1603)">
<g filter="url(#filter1_d_914_1603)">
<path d="M82 24.6188C86.9504 21.7607 93.0496 21.7607 98 24.6188L149.55 54.3812C154.5 57.2393 157.55 62.5214 157.55 68.2376V127.762C157.55 133.479 154.5 138.761 149.55 141.619L98 171.381C93.0496 174.239 86.9504 174.239 82 171.381L30.45 141.619C25.4996 138.761 22.45 133.479 22.45 127.762V68.2376C22.45 62.5214 25.4996 57.2393 30.45 54.3812L82 24.6188Z" fill="#D3D4D5"/>
</g>
<g filter="url(#filter2_i_914_1603)">
<path d="M82.0914 37.4968C86.9952 34.7086 93.0048 34.7086 97.9086 37.4968L139.066 60.8992C144.068 63.7433 147.158 69.0541 147.158 74.808V121.192C147.158 126.946 144.068 132.257 139.066 135.101L97.9086 158.503C93.0048 161.291 86.9952 161.291 82.0914 158.503L40.9337 135.101C35.9319 132.257 32.8423 126.946 32.8423 121.192V74.808C32.8423 69.0541 35.9319 63.7433 40.9337 60.8992L82.0914 37.4968Z" fill="#DEDEDE"/>
</g>
<path d="M82.0914 37.4968C86.9952 34.7086 93.0048 34.7086 97.9086 37.4968L139.066 60.8992C144.068 63.7433 147.158 69.0541 147.158 74.808V121.192C147.158 126.946 144.068 132.257 139.066 135.101L97.9086 158.503C93.0048 161.291 86.9952 161.291 82.0914 158.503L40.9337 135.101C35.9319 132.257 32.8423 126.946 32.8423 121.192V74.808C32.8423 69.0541 35.9319 63.7433 40.9337 60.8992L82.0914 37.4968Z" stroke="#DBDBDB"/>
<g filter="url(#filter3_d_914_1603)">
<path d="M82.5 49.6188C87.4504 46.7607 93.5496 46.7607 98.5 49.6188L128.832 67.1312C133.783 69.9893 136.832 75.2714 136.832 80.9876V116.012C136.832 121.729 133.783 127.011 128.832 129.869L98.5 147.381C93.5496 150.239 87.4504 150.239 82.5 147.381L52.1676 129.869C47.2172 127.011 44.1676 121.729 44.1676 116.012V80.9876C44.1676 75.2714 47.2172 69.9893 52.1676 67.1312L82.5 49.6188Z" fill="#D3D4D5"/>
<path d="M82.5 49.6188C87.4504 46.7607 93.5496 46.7607 98.5 49.6188L128.832 67.1312C133.783 69.9893 136.832 75.2714 136.832 80.9876V116.012C136.832 121.729 133.783 127.011 128.832 129.869L98.5 147.381C93.5496 150.239 87.4504 150.239 82.5 147.381L52.1676 129.869C47.2172 127.011 44.1676 121.729 44.1676 116.012V80.9876C44.1676 75.2714 47.2172 69.9893 52.1676 67.1312L82.5 49.6188Z" stroke="#D5D5D5"/>
</g>
<g filter="url(#filter4_i_914_1603)">
<path d="M29.1 110.527L29.1 112.477L30 112.849L30 113.845L25.8 111.973L25.8 111.013L30 109.135L30 110.155L29.1 110.527ZM28.362 110.833L26.754 111.499L28.362 112.165L28.362 110.833ZM30 104.877L27.48 104.883L29.556 106.119L29.556 106.557L27.534 107.787L30 107.787L30 108.699L25.8 108.699L25.8 107.895L28.41 106.323L25.8 104.775L25.8 103.977L30 103.965L30 104.877ZM29.1 100.203L29.1 102.153L30 102.525L30 103.521L25.8 101.649L25.8 100.689L30 98.8108L30 99.8308L29.1 100.203ZM28.362 100.509L26.754 101.175L28.362 101.841L28.362 100.509ZM26.592 97.716L26.592 99.06L25.8 99.06L25.8 95.4L26.592 95.4L26.592 96.744L30 96.744L30 97.716L26.592 97.716ZM29.22 91.625L30 91.625L30 94.877L25.8 94.877L25.8 91.703L26.58 91.703L26.58 93.911L27.492 93.911L27.492 91.961L28.248 91.961L28.248 93.911L29.22 93.911L29.22 91.625ZM30.072 88.9856C30.072 89.5856 29.906 90.0536 29.574 90.3896C29.242 90.7216 28.768 90.8876 28.152 90.8876L25.8 90.8876L25.8 89.9156L28.116 89.9156C28.868 89.9156 29.244 89.6036 29.244 88.9796C29.244 88.6756 29.154 88.4436 28.974 88.2836C28.79 88.1236 28.504 88.0436 28.116 88.0436L25.8 88.0436L25.8 87.0836L28.152 87.0836C28.768 87.0836 29.242 87.2516 29.574 87.5876C29.906 87.9196 30.072 88.3856 30.072 88.9856ZM30 83.4471L28.83 84.2571L28.83 84.3051L28.83 85.1511L30 85.1511L30 86.1231L25.8 86.1231L25.8 84.3051C25.8 83.9331 25.862 83.6111 25.986 83.3391C26.11 83.0631 26.286 82.8511 26.514 82.7031C26.742 82.5551 27.012 82.4811 27.324 82.4811C27.636 82.4811 27.906 82.5571 28.134 82.7091C28.358 82.8571 28.53 83.0691 28.65 83.3451L30 82.4031L30 83.4471ZM27.324 83.4651C27.088 83.4651 26.908 83.5411 26.784 83.6931C26.656 83.8451 26.592 84.0671 26.592 84.3591L26.592 85.1511L28.056 85.1511L28.056 84.3591C28.056 84.0671 27.992 83.8451 27.864 83.6931C27.736 83.5411 27.556 83.4651 27.324 83.4651Z" fill="#D3D4D5"/>
</g>
<g filter="url(#filter5_i_914_1603)">
<path d="M150.9 85.473L150.9 83.523L150 83.151L150 82.155L154.2 84.027L154.2 84.987L150 86.865L150 85.845L150.9 85.473ZM151.638 85.167L153.246 84.501L151.638 83.835L151.638 85.167ZM150 91.1227L152.52 91.1167L150.444 89.8807L150.444 89.4427L152.466 88.2127L150 88.2127L150 87.3007L154.2 87.3007L154.2 88.1047L151.59 89.6767L154.2 91.2247L154.2 92.0227L150 92.0347L150 91.1227ZM150.9 95.7972L150.9 93.8472L150 93.4752L150 92.4792L154.2 94.3512L154.2 95.3112L150 97.1892L150 96.1692L150.9 95.7972ZM151.638 95.4912L153.246 94.8252L151.638 94.1592L151.638 95.4912ZM153.408 98.284L153.408 96.94L154.2 96.94L154.2 100.6L153.408 100.6L153.408 99.256L150 99.256L150 98.284L153.408 98.284ZM150.78 104.375L150 104.375L150 101.123L154.2 101.123L154.2 104.297L153.42 104.297L153.42 102.089L152.508 102.089L152.508 104.039L151.752 104.039L151.752 102.089L150.78 102.089L150.78 104.375ZM149.928 107.014C149.928 106.414 150.094 105.946 150.426 105.61C150.758 105.278 151.232 105.112 151.848 105.112L154.2 105.112L154.2 106.084L151.884 106.084C151.132 106.084 150.756 106.396 150.756 107.02C150.756 107.324 150.846 107.556 151.026 107.716C151.21 107.876 151.496 107.956 151.884 107.956L154.2 107.956L154.2 108.916L151.848 108.916C151.232 108.916 150.758 108.748 150.426 108.412C150.094 108.08 149.928 107.614 149.928 107.014ZM150 112.553L151.17 111.743L151.17 111.695L151.17 110.849L150 110.849L150 109.877L154.2 109.877L154.2 111.695C154.2 112.067 154.138 112.389 154.014 112.661C153.89 112.937 153.714 113.149 153.486 113.297C153.258 113.445 152.988 113.519 152.676 113.519C152.364 113.519 152.094 113.443 151.866 113.291C151.642 113.143 151.47 112.931 151.35 112.655L150 113.597L150 112.553ZM152.676 112.535C152.912 112.535 153.092 112.459 153.216 112.307C153.344 112.155 153.408 111.933 153.408 111.641L153.408 110.849L151.944 110.849L151.944 111.641C151.944 111.933 152.008 112.155 152.136 112.307C152.264 112.459 152.444 112.535 152.676 112.535Z" fill="#D3D4D5"/>
</g>
<g filter="url(#filter6_i_914_1603)">
<path d="M89.195 82.4351C89.9194 80.9168 92.0806 80.9168 92.805 82.4351L96.2928 89.7443C96.5844 90.3553 97.1653 90.7774 97.8365 90.8658L105.866 91.9242C107.534 92.1441 108.201 94.1994 106.981 95.3576L101.108 100.933C100.617 101.399 100.395 102.082 100.518 102.748L101.993 110.711C102.299 112.366 100.55 113.636 99.072 112.833L91.954 108.97C91.359 108.647 90.641 108.647 90.046 108.97L82.928 112.833C81.4495 113.636 79.7011 112.366 80.0074 110.711L81.482 102.748C81.6053 102.082 81.3834 101.399 80.8924 100.933L75.0187 95.3576C73.7986 94.1994 74.4664 92.1441 76.1342 91.9242L84.1635 90.8658C84.8347 90.7774 85.4156 90.3553 85.7072 89.7443L89.195 82.4351Z" fill="#DEDEDE"/>
</g>
<g filter="url(#filter7_i_914_1603)">
<path d="M120.314 42.8038L119.15 42.1318L119.546 41.4459L122.716 43.2759L122.32 43.9618L121.156 43.2898L119.452 46.2412L118.61 45.7552L120.314 42.8038ZM123.169 43.5374L124.01 44.0234L121.91 47.6607L121.069 47.1747L123.169 43.5374ZM128.21 46.4478L126.11 50.0851L125.419 49.6861L124.88 46.4307L123.605 48.6391L122.774 48.1591L124.874 44.5218L125.57 44.9238L126.103 48.1762L127.378 45.9678L128.21 46.4478Z" fill="#D3D4D5"/>
</g>
<g filter="url(#filter8_i_914_1603)">
<path d="M132.387 52.7665C132.13 52.6185 131.967 52.4134 131.897 52.1511C131.834 51.8928 131.876 51.6355 132.024 51.3792C132.168 51.1298 132.368 50.9679 132.623 50.8937C132.885 50.8234 133.144 50.8622 133.401 51.0102C133.657 51.1582 133.817 51.3614 133.88 51.6197C133.951 51.8819 133.914 52.1378 133.77 52.3872C133.622 52.6435 133.417 52.8068 133.154 52.8771C132.899 52.9514 132.643 52.9145 132.387 52.7665Z" fill="#D3D4D5"/>
</g>
<g filter="url(#filter9_i_914_1603)">
<path d="M112.138 41.7659C111.882 41.6179 111.718 41.4127 111.648 41.1505C111.585 40.8922 111.627 40.6349 111.775 40.3785C111.919 40.1291 112.119 39.9673 112.374 39.893C112.636 39.8227 112.896 39.8616 113.152 40.0096C113.408 40.1576 113.568 40.3607 113.631 40.619C113.702 40.8813 113.665 41.1371 113.521 41.3865C113.373 41.6429 113.168 41.8062 112.905 41.8765C112.65 41.9507 112.394 41.9139 112.138 41.7659Z" fill="#D3D4D5"/>
</g>
<g filter="url(#filter10_i_914_1603)">
<path d="M60.0597 153.714L61.2236 154.386L60.8276 155.072L57.658 153.242L58.054 152.556L59.2179 153.228L60.9219 150.276L61.7637 150.762L60.0597 153.714ZM57.2051 152.98L56.3633 152.494L58.4633 148.857L59.3051 149.343L57.2051 152.98ZM52.1642 150.07L54.2642 146.432L54.9552 146.831L55.4937 150.087L56.7687 147.878L57.6001 148.358L55.5001 151.996L54.8038 151.594L54.2705 148.341L52.9955 150.55L52.1642 150.07Z" fill="#D3D4D5"/>
</g>
<g filter="url(#filter11_i_914_1603)">
<path d="M47.9871 144.751C48.2435 144.899 48.4068 145.104 48.477 145.367C48.5404 145.625 48.4981 145.882 48.3501 146.139C48.2061 146.388 48.0064 146.55 47.751 146.624C47.4888 146.694 47.2295 146.656 46.9731 146.508C46.7168 146.36 46.5569 146.156 46.4936 145.898C46.4233 145.636 46.4602 145.38 46.6042 145.131C46.7522 144.874 46.9573 144.711 47.2196 144.641C47.4749 144.566 47.7308 144.603 47.9871 144.751Z" fill="#D3D4D5"/>
</g>
<g filter="url(#filter12_i_914_1603)">
<path d="M68.2358 155.752C68.4921 155.9 68.6554 156.105 68.7257 156.367C68.789 156.625 68.7467 156.883 68.5987 157.139C68.4547 157.389 68.255 157.55 67.9997 157.625C67.7374 157.695 67.4781 157.656 67.2218 157.508C66.9654 157.36 66.8056 157.157 66.7422 156.899C66.672 156.636 66.7088 156.381 66.8528 156.131C67.0008 155.875 67.206 155.711 67.4682 155.641C67.7236 155.567 67.9794 155.604 68.2358 155.752Z" fill="#D3D4D5"/>
</g>
</g>
<defs>
<filter id="filter0_d_914_1603" x="0.450073" y="0.475208" width="183.1" height="199.05" filterUnits="userSpaceOnUse" color-interpolation-filters="sRGB">
<feFlood flood-opacity="0" result="BackgroundImageFix"/>
<feColorMatrix in="SourceAlpha" type="matrix" values="0 0 0 0 0 0 0 0 0 0 0 0 0 0 0 0 0 0 127 0" result="hardAlpha"/>
<feOffset dx="2" dy="2"/>
<feGaussianBlur stdDeviation="12"/>
<feComposite in2="hardAlpha" operator="out"/>
<feColorMatrix type="matrix" values="0 0 0 0 0 0 0 0 0 0 0 0 0 0 0 0 0 0 0.25 0"/>
<feBlend mode="normal" in2="BackgroundImageFix" result="effect1_dropShadow_914_1603"/>
<feBlend mode="normal" in="SourceGraphic" in2="effect1_dropShadow_914_1603" result="shape"/>
</filter>
<filter id="filter1_d_914_1603" x="18.4501" y="22.4752" width="143.1" height="159.05" filterUnits="userSpaceOnUse" color-interpolation-filters="sRGB">
<feFlood flood-opacity="0" result="BackgroundImageFix"/>
<feColorMatrix in="SourceAlpha" type="matrix" values="0 0 0 0 0 0 0 0 0 0 0 0 0 0 0 0 0 0 127 0" result="hardAlpha"/>
<feOffset dy="4"/>
<feGaussianBlur stdDeviation="2"/>
<feComposite in2="hardAlpha" operator="out"/>
<feColorMatrix type="matrix" values="0 0 0 0 0 0 0 0 0 0 0 0 0 0 0 0 0 0 0.25 0"/>
<feBlend mode="normal" in2="BackgroundImageFix" result="effect1_dropShadow_914_1603"/>
<feBlend mode="normal" in="SourceGraphic" in2="effect1_dropShadow_914_1603" result="shape"/>
</filter>
<filter id="filter2_i_914_1603" x="32.3423" y="34.9056" width="115.315" height="130.189" filterUnits="userSpaceOnUse" color-interpolation-filters="sRGB">
<feFlood flood-opacity="0" result="BackgroundImageFix"/>
<feBlend mode="normal" in="SourceGraphic" in2="BackgroundImageFix" result="shape"/>
<feColorMatrix in="SourceAlpha" type="matrix" values="0 0 0 0 0 0 0 0 0 0 0 0 0 0 0 0 0 0 127 0" result="hardAlpha"/>
<feOffset dy="4"/>
<feGaussianBlur stdDeviation="2"/>
<feComposite in2="hardAlpha" operator="arithmetic" k2="-1" k3="1"/>
<feColorMatrix type="matrix" values="0 0 0 0 0 0 0 0 0 0 0 0 0 0 0 0 0 0 0.25 0"/>
<feBlend mode="normal" in2="shape" result="effect1_innerShadow_914_1603"/>
</filter>
<filter id="filter3_d_914_1603" x="39.6676" y="46.9752" width="101.665" height="111.05" filterUnits="userSpaceOnUse" color-interpolation-filters="sRGB">
<feFlood flood-opacity="0" result="BackgroundImageFix"/>
<feColorMatrix in="SourceAlpha" type="matrix" values="0 0 0 0 0 0 0 0 0 0 0 0 0 0 0 0 0 0 127 0" result="hardAlpha"/>
<feOffset dy="4"/>
<feGaussianBlur stdDeviation="2"/>
<feComposite in2="hardAlpha" operator="out"/>
<feColorMatrix type="matrix" values="0 0 0 0 0 0 0 0 0 0 0 0 0 0 0 0 0 0 0.25 0"/>
<feBlend mode="normal" in2="BackgroundImageFix" result="effect1_dropShadow_914_1603"/>
<feBlend mode="normal" in="SourceGraphic" in2="effect1_dropShadow_914_1603" result="shape"/>
</filter>
<filter id="filter4_i_914_1603" x="25.8" y="82.4031" width="4.27197" height="35.4419" filterUnits="userSpaceOnUse" color-interpolation-filters="sRGB">
<feFlood flood-opacity="0" result="BackgroundImageFix"/>
<feBlend mode="normal" in="SourceGraphic" in2="BackgroundImageFix" result="shape"/>
<feColorMatrix in="SourceAlpha" type="matrix" values="0 0 0 0 0 0 0 0 0 0 0 0 0 0 0 0 0 0 127 0" result="hardAlpha"/>
<feOffset dy="4"/>
<feGaussianBlur stdDeviation="2"/>
<feComposite in2="hardAlpha" operator="arithmetic" k2="-1" k3="1"/>
<feColorMatrix type="matrix" values="0 0 0 0 0 0 0 0 0 0 0 0 0 0 0 0 0 0 0.25 0"/>
<feBlend mode="normal" in2="shape" result="effect1_innerShadow_914_1603"/>
</filter>
<filter id="filter5_i_914_1603" x="149.928" y="82.155" width="4.27197" height="35.4419" filterUnits="userSpaceOnUse" color-interpolation-filters="sRGB">
<feFlood flood-opacity="0" result="BackgroundImageFix"/>
<feBlend mode="normal" in="SourceGraphic" in2="BackgroundImageFix" result="shape"/>
<feColorMatrix in="SourceAlpha" type="matrix" values="0 0 0 0 0 0 0 0 0 0 0 0 0 0 0 0 0 0 127 0" result="hardAlpha"/>
<feOffset dy="4"/>
<feGaussianBlur stdDeviation="2"/>
<feComposite in2="hardAlpha" operator="arithmetic" k2="-1" k3="1"/>
<feColorMatrix type="matrix" values="0 0 0 0 0 0 0 0 0 0 0 0 0 0 0 0 0 0 0.25 0"/>
<feBlend mode="normal" in2="shape" result="effect1_innerShadow_914_1603"/>
</filter>
<filter id="filter6_i_914_1603" x="74.3933" y="81.2964" width="33.2134" height="35.7839" filterUnits="userSpaceOnUse" color-interpolation-filters="sRGB">
<feFlood flood-opacity="0" result="BackgroundImageFix"/>
<feBlend mode="normal" in="SourceGraphic" in2="BackgroundImageFix" result="shape"/>
<feColorMatrix in="SourceAlpha" type="matrix" values="0 0 0 0 0 0 0 0 0 0 0 0 0 0 0 0 0 0 127 0" result="hardAlpha"/>
<feOffset dy="4"/>
<feGaussianBlur stdDeviation="2"/>
<feComposite in2="hardAlpha" operator="arithmetic" k2="-1" k3="1"/>
<feColorMatrix type="matrix" values="0 0 0 0 0 0 0 0 0 0 0 0 0 0 0 0 0 0 0.25 0"/>
<feBlend mode="normal" in2="shape" result="effect1_innerShadow_914_1603"/>
</filter>
<filter id="filter7_i_914_1603" x="117.446" y="41.4459" width="10.7634" height="12.6392" filterUnits="userSpaceOnUse" color-interpolation-filters="sRGB">
<feFlood flood-opacity="0" result="BackgroundImageFix"/>
<feBlend mode="normal" in="SourceGraphic" in2="BackgroundImageFix" result="shape"/>
<feColorMatrix in="SourceAlpha" type="matrix" values="0 0 0 0 0 0 0 0 0 0 0 0 0 0 0 0 0 0 127 0" result="hardAlpha"/>
<feOffset dy="4"/>
<feGaussianBlur stdDeviation="2"/>
<feComposite in2="hardAlpha" operator="arithmetic" k2="-1" k3="1"/>
<feColorMatrix type="matrix" values="0 0 0 0 0 0 0 0 0 0 0 0 0 0 0 0 0 0 0.25 0"/>
<feBlend mode="normal" in2="shape" result="effect1_innerShadow_914_1603"/>
</filter>
<filter id="filter8_i_914_1603" x="131.514" y="50.5062" width="2.75989" height="6.7643" filterUnits="userSpaceOnUse" color-interpolation-filters="sRGB">
<feFlood flood-opacity="0" result="BackgroundImageFix"/>
<feBlend mode="normal" in="SourceGraphic" in2="BackgroundImageFix" result="shape"/>
<feColorMatrix in="SourceAlpha" type="matrix" values="0 0 0 0 0 0 0 0 0 0 0 0 0 0 0 0 0 0 127 0" result="hardAlpha"/>
<feOffset dy="4"/>
<feGaussianBlur stdDeviation="2"/>
<feComposite in2="hardAlpha" operator="arithmetic" k2="-1" k3="1"/>
<feColorMatrix type="matrix" values="0 0 0 0 0 0 0 0 0 0 0 0 0 0 0 0 0 0 0.25 0"/>
<feBlend mode="normal" in2="shape" result="effect1_innerShadow_914_1603"/>
</filter>
<filter id="filter9_i_914_1603" x="111.265" y="39.5056" width="2.75989" height="6.7643" filterUnits="userSpaceOnUse" color-interpolation-filters="sRGB">
<feFlood flood-opacity="0" result="BackgroundImageFix"/>
<feBlend mode="normal" in="SourceGraphic" in2="BackgroundImageFix" result="shape"/>
<feColorMatrix in="SourceAlpha" type="matrix" values="0 0 0 0 0 0 0 0 0 0 0 0 0 0 0 0 0 0 127 0" result="hardAlpha"/>
<feOffset dy="4"/>
<feGaussianBlur stdDeviation="2"/>
<feComposite in2="hardAlpha" operator="arithmetic" k2="-1" k3="1"/>
<feColorMatrix type="matrix" values="0 0 0 0 0 0 0 0 0 0 0 0 0 0 0 0 0 0 0.25 0"/>
<feBlend mode="normal" in2="shape" result="effect1_innerShadow_914_1603"/>
</filter>
<filter id="filter10_i_914_1603" x="52.1642" y="146.432" width="10.7634" height="12.6392" filterUnits="userSpaceOnUse" color-interpolation-filters="sRGB">
<feFlood flood-opacity="0" result="BackgroundImageFix"/>
<feBlend mode="normal" in="SourceGraphic" in2="BackgroundImageFix" result="shape"/>
<feColorMatrix in="SourceAlpha" type="matrix" values="0 0 0 0 0 0 0 0 0 0 0 0 0 0 0 0 0 0 127 0" result="hardAlpha"/>
<feOffset dy="4"/>
<feGaussianBlur stdDeviation="2"/>
<feComposite in2="hardAlpha" operator="arithmetic" k2="-1" k3="1"/>
<feColorMatrix type="matrix" values="0 0 0 0 0 0 0 0 0 0 0 0 0 0 0 0 0 0 0.25 0"/>
<feBlend mode="normal" in2="shape" result="effect1_innerShadow_914_1603"/>
</filter>
<filter id="filter11_i_914_1603" x="46.1002" y="144.247" width="2.75989" height="6.7643" filterUnits="userSpaceOnUse" color-interpolation-filters="sRGB">
<feFlood flood-opacity="0" result="BackgroundImageFix"/>
<feBlend mode="normal" in="SourceGraphic" in2="BackgroundImageFix" result="shape"/>
<feColorMatrix in="SourceAlpha" type="matrix" values="0 0 0 0 0 0 0 0 0 0 0 0 0 0 0 0 0 0 127 0" result="hardAlpha"/>
<feOffset dy="4"/>
<feGaussianBlur stdDeviation="2"/>
<feComposite in2="hardAlpha" operator="arithmetic" k2="-1" k3="1"/>
<feColorMatrix type="matrix" values="0 0 0 0 0 0 0 0 0 0 0 0 0 0 0 0 0 0 0.25 0"/>
<feBlend mode="normal" in2="shape" result="effect1_innerShadow_914_1603"/>
</filter>
<filter id="filter12_i_914_1603" x="66.3489" y="155.248" width="2.75989" height="6.7643" filterUnits="userSpaceOnUse" color-interpolation-filters="sRGB">
<feFlood flood-opacity="0" result="BackgroundImageFix"/>
<feBlend mode="normal" in="SourceGraphic" in2="BackgroundImageFix" result="shape"/>
<feColorMatrix in="SourceAlpha" type="matrix" values="0 0 0 0 0 0 0 0 0 0 0 0 0 0 0 0 0 0 127 0" result="hardAlpha"/>
<feOffset dy="4"/>
<feGaussianBlur stdDeviation="2"/>
<feComposite in2="hardAlpha" operator="arithmetic" k2="-1" k3="1"/>
<feColorMatrix type="matrix" values="0 0 0 0 0 0 0 0 0 0 0 0 0 0 0 0 0 0 0.25 0"/>
<feBlend mode="normal" in2="shape" result="effect1_innerShadow_914_1603"/>
</filter>
</defs>
</svg>
